<svg width="22" height="26" viewBox="0 0 22 26" fill="none" xmlns="http://www.w3.org/2000/svg">
<path d="M12.5325 24.0332C9.46452 24.7417 6.29907 23.2109 5.46214 20.6136C5.05272 19.3431 5.1864 17.9547 5.67255 16.6163C5.99485 17.1213 6.36373 17.5286 6.77415 17.848C7.4372 15.0134 8.85173 12.6267 10.9826 10.6673C12.5573 15.5539 15.4932 14.7 16.572 18.0478C17.409 20.6451 15.6004 23.325 12.5325 24.0332ZM19.1984 8.70641C18.9059 9.77001 18.4704 10.6735 17.9062 11.4331C15.0134 6.51362 11.0074 2.73408 5.93957 0.0419922C5.93957 9.67435 0.0479126 9.35189 0.0479126 15.9513C0.0479126 21.0709 4.9502 25.2211 10.998 25.2211C17.0454 25.2211 21.9481 21.0709 21.9481 15.9513C21.9481 13.4465 20.882 10.956 19.1984 8.70641Z" fill="#DF6868"/>
</svg>
