<svg width="53" height="55" viewBox="0 0 53 55" fill="none" xmlns="http://www.w3.org/2000/svg">
<path d="M31.4904 43.9629C30.4907 43.9649 29.496 43.8918 28.5064 43.745C27.5161 43.5975 26.5416 43.377 25.5828 43.084C24.6233 42.7904 23.6897 42.427 22.7811 41.9937C21.8726 41.5605 20.9987 41.0613 20.1593 40.4969C19.8336 40.2777 19.5136 40.0493 19.2005 39.8111C18.8868 39.5736 18.58 39.327 18.2794 39.0712C17.9789 38.8155 17.6859 38.5518 17.3998 38.2791C17.1137 38.0064 16.8352 37.7258 16.5636 37.4374C16.2926 37.1483 16.0298 36.8521 15.7745 36.5487C15.5193 36.2446 15.2722 35.9334 15.0333 35.6156C14.795 35.2972 14.5649 34.9723 14.3442 34.6415C14.1229 34.31 13.9103 33.972 13.7073 33.6282C13.5042 33.285 13.3105 32.9352 13.1263 32.5803C12.9421 32.226 12.7673 31.8658 12.6026 31.5011C12.4372 31.1357 12.2819 30.7664 12.1367 30.3925C11.9915 30.0186 11.8563 29.6402 11.7312 29.2585C11.6067 28.8767 11.4916 28.4918 11.3872 28.1036C11.2829 27.7147 11.1892 27.3238 11.1056 26.9297C11.0226 26.5363 10.9496 26.1402 10.8874 25.7422C10.8252 25.3442 10.7736 24.9449 10.7327 24.5436C10.6925 24.1423 10.6623 23.7404 10.6428 23.3378C10.624 22.9352 10.6152 22.532 10.6177 22.1287C10.6202 21.7255 10.6334 21.3229 10.6573 20.9203C10.6812 20.5177 10.7158 20.1164 10.7616 19.7158C10.8069 19.3152 10.8629 18.9165 10.9302 18.5192C10.9968 18.1218 11.0741 17.727 11.1622 17.3342C11.2502 16.9414 11.3489 16.5519 11.4577 16.165C11.5671 15.7774 11.6859 15.3937 11.8154 15.014C11.9449 14.6336 12.0845 14.2577 12.2341 13.8852C12.3838 13.5133 12.5435 13.1459 12.7126 12.7831C12.8824 12.4203 13.0609 12.0628 13.2495 11.7098C13.4382 11.3574 13.6362 11.0103 13.8431 10.6697C14.0499 10.3285 14.2662 9.99374 14.4913 9.66488C14.7164 9.33668 14.9503 9.01435 15.1923 8.69985C15.4344 8.3847 15.6853 8.07673 15.9443 7.77593C16.2027 7.47513 16.4693 7.18282 16.744 6.89768C17.2275 6.39265 17.733 5.91373 18.2624 5.4609C18.7912 5.00807 19.3401 4.5833 19.9091 4.18659C20.4787 3.79053 21.0653 3.42448 21.6695 3.0878C22.2738 2.75177 22.8924 2.44771 23.5256 2.17497C24.1587 1.90223 24.8032 1.66277 25.4596 1.45658C26.1153 1.25039 26.7799 1.07814 27.452 0.939809C28.1241 0.802134 28.8019 0.699041 29.4841 0.630529C30.1663 0.562018 30.8503 0.528741 31.5356 0.530046C32.0493 0.530046 32.5617 0.549621 33.0741 0.58877C33.5866 0.628572 34.0965 0.687296 34.6045 0.765594C35.1131 0.84324 35.6174 0.941114 36.1185 1.05791C36.6196 1.1747 37.1163 1.31042 37.6079 1.46571C38.099 1.62035 38.5844 1.79392 39.0641 1.98575C39.5432 2.17758 40.0147 2.38768 40.4794 2.61605C40.9434 2.84377 41.3992 3.08976 41.8462 3.35271C42.2926 3.61566 42.7296 3.89493 43.1571 4.19181C43.5841 4.48804 44.0003 4.79993 44.4052 5.12813C44.8101 5.45633 45.2024 5.80019 45.5834 6.15841C45.9638 6.51663 46.331 6.88855 46.6856 7.27482C47.0396 7.66174 47.3797 8.06107 47.7054 8.47344C48.0311 8.88581 48.3417 9.30993 48.6378 9.74644C48.9333 10.1823 49.2131 10.6293 49.4772 11.0867C49.7412 11.5441 49.989 12.0112 50.2197 12.4882C50.4511 12.9645 50.6642 13.4493 50.861 13.9419C51.0578 14.4352 51.2364 14.9344 51.3973 15.4414C51.5583 15.9477 51.7016 16.4599 51.8261 16.9773C51.9512 17.4947 52.0575 18.0161 52.1449 18.542C52.2329 19.0679 52.3021 19.5958 52.3524 20.1269C52.4027 20.658 52.4341 21.1898 52.4467 21.7235C52.4593 22.2566 52.453 22.7897 52.4272 23.3221C52.4021 23.8552 52.358 24.3863 52.2952 24.9161C52.2323 25.4453 52.1506 25.9719 52.0506 26.4952C51.95 27.0178 51.8318 27.5365 51.6947 28.0507C51.5577 28.5649 51.4024 29.0731 51.2295 29.5756C51.0559 30.078 50.8654 30.5726 50.6573 31.0606C50.4492 31.548 50.2241 32.027 49.9814 32.4974C49.7394 32.9679 49.4809 33.4285 49.2062 33.8794C48.9314 34.3302 48.641 34.7694 48.3348 35.1981C48.0286 35.6267 47.7079 36.0424 47.3722 36.4463C47.0371 36.8502 46.6875 37.241 46.3241 37.6181C45.8374 38.1212 45.3288 38.5982 44.7969 39.0497C44.2656 39.5006 43.7142 39.9234 43.1421 40.3181C42.5705 40.7135 41.982 41.0783 41.3759 41.413C40.7698 41.7477 40.1493 42.0505 39.5149 42.3219C38.8799 42.594 38.2342 42.8322 37.5765 43.0377C36.9195 43.2432 36.2537 43.4148 35.5803 43.5525C34.9069 43.6902 34.2285 43.7933 33.5451 43.8618C32.8616 43.9303 32.1769 43.9642 31.4904 43.9629ZM31.5382 1.65428C31.0075 1.65428 30.4775 1.67647 29.9487 1.72084C29.4199 1.76521 28.8937 1.83111 28.37 1.91919C27.8462 2.00793 27.3263 2.11755 26.8113 2.2487C26.2958 2.3805 25.7865 2.53319 25.2829 2.70675C24.7793 2.88096 24.2838 3.0754 23.7953 3.29072C23.3068 3.50605 22.827 3.74094 22.3568 3.99606C21.8865 4.25184 21.4269 4.52589 20.9779 4.8195C20.5284 5.11312 20.0914 5.42436 19.6664 5.75452C19.2414 6.08468 18.8302 6.4318 18.4316 6.79589C18.0336 7.15998 17.6501 7.54038 17.281 7.93644C16.9125 8.3325 16.5592 8.74357 16.2222 9.16899C15.8852 9.59441 15.5652 10.0335 15.2615 10.4857C14.9584 10.9379 14.673 11.4025 14.4058 11.8781C14.1386 12.3544 13.8902 12.8405 13.6601 13.3377C13.4306 13.8343 13.22 14.34 13.0295 14.8541C12.839 15.3683 12.668 15.8896 12.5177 16.4181C12.3674 16.9467 12.2373 17.4804 12.1285 18.02C12.0191 18.559 11.9311 19.1025 11.8638 19.6486C11.7965 20.1954 11.7506 20.7441 11.7255 21.2948C11.7003 21.8449 11.6972 22.3956 11.7148 22.9463C11.7324 23.4976 11.7714 24.0464 11.8311 24.5945C11.8915 25.1419 11.9726 25.6861 12.0744 26.227C12.1769 26.7673 12.2995 27.3029 12.4429 27.8341C12.5869 28.3645 12.7503 28.8878 12.9346 29.4053C13.1181 29.922 13.3219 30.4303 13.5451 30.9301C13.7683 31.4306 14.0103 31.92 14.2719 32.4002C14.5328 32.8798 14.812 33.3476 15.1093 33.8043C15.4061 34.2611 15.7205 34.7041 16.0524 35.1348C16.3838 35.5648 16.7315 35.981 17.0949 36.3823C17.4583 36.7836 17.8374 37.1692 18.2304 37.5392C18.624 37.9085 19.0308 38.2615 19.4514 38.5975C19.8726 38.9336 20.3052 39.2513 20.7503 39.5508C21.005 39.7218 21.2628 39.8862 21.5243 40.0447C21.7859 40.2033 22.0506 40.3553 22.319 40.5015C22.5869 40.6476 22.8585 40.7866 23.1326 40.9197C23.4067 41.0528 23.684 41.1794 23.9638 41.2995C24.2442 41.4189 24.5265 41.5324 24.8113 41.6388C25.0961 41.7451 25.3835 41.8443 25.6727 41.9376C25.9619 42.0303 26.253 42.1157 26.5466 42.1947C26.8396 42.2736 27.1339 42.3454 27.4306 42.4107C27.7268 42.4753 28.0242 42.5333 28.3228 42.5842C28.6221 42.6345 28.9214 42.6782 29.2225 42.7147C29.5231 42.7513 29.8242 42.7806 30.1266 42.8028C30.4284 42.825 30.7309 42.84 31.0339 42.8478C31.3363 42.8557 31.6387 42.8563 31.9418 42.8491C32.2442 42.8426 32.5466 42.8289 32.8491 42.808C33.1509 42.7872 33.4526 42.7591 33.7532 42.7232C34.0543 42.688 34.3542 42.6456 34.6535 42.596C34.9522 42.5464 35.2502 42.4896 35.5463 42.4257C35.8431 42.3624 36.138 42.2913 36.4316 42.2136C36.7246 42.136 37.0163 42.0511 37.3062 41.9598C37.5954 41.8678 37.8827 41.7693 38.1681 41.6642C38.4536 41.5585 38.7365 41.4469 39.0169 41.3282C39.2974 41.2094 39.5746 41.0835 39.8494 40.9517C40.1241 40.8199 40.3964 40.6816 40.6648 40.5367C40.9333 40.3919 41.1993 40.2405 41.4608 40.0832C41.723 39.9253 41.9814 39.7616 42.2367 39.5919C42.4913 39.4223 42.7422 39.2461 42.9893 39.0647C43.2364 38.8827 43.4797 38.6954 43.7186 38.5023C43.9569 38.3085 44.1914 38.1101 44.4215 37.9052C44.6516 37.701 44.8774 37.4909 45.098 37.2762C45.3187 37.0609 45.535 36.8404 45.7456 36.6153C45.9569 36.3895 46.1631 36.1592 46.3643 35.9243C46.5649 35.6887 46.7604 35.4493 46.9509 35.2046C47.1414 34.9599 47.3263 34.7113 47.5055 34.4575C47.6853 34.2043 47.8588 33.9466 48.0267 33.6856C48.1952 33.4239 48.3574 33.1584 48.5133 32.8889C48.6699 32.6194 48.8202 32.3467 48.9648 32.07C49.1087 31.794 49.2471 31.5141 49.3791 31.2309C49.5111 30.9477 49.6369 30.662 49.7563 30.3729C49.8758 30.0839 49.9883 29.7922 50.0952 29.4979C50.2015 29.2036 50.3014 28.9068 50.3951 28.6079C50.4882 28.3084 50.5749 28.0076 50.6554 27.7042C50.7353 27.4008 50.8088 27.0961 50.8755 26.7894C50.9421 26.4821 51.0025 26.1741 51.0553 25.8649C51.1087 25.5549 51.1546 25.2443 51.1942 24.9325C51.2339 24.6206 51.2666 24.308 51.2917 23.9948C51.3175 23.6816 51.3363 23.3678 51.3483 23.0533C51.3602 22.7394 51.3646 22.4249 51.3628 22.1104C51.3609 21.7959 51.3521 21.4814 51.3363 21.1676C51.32 20.8538 51.2974 20.5399 51.2678 20.2274C51.2383 19.9142 51.2012 19.6023 51.1578 19.291C51.1144 18.9798 51.0641 18.6692 51.0069 18.3606C50.9497 18.052 50.8862 17.7446 50.8151 17.4386C50.7447 17.1333 50.6674 16.8292 50.5831 16.5271C50.4989 16.225 50.4083 15.9249 50.3109 15.6273C50.2141 15.3291 50.1103 15.0342 49.9997 14.7412C49.8896 14.4483 49.7727 14.1579 49.6495 13.8708C49.5262 13.5837 49.3973 13.2992 49.2615 13.018C49.1257 12.7368 48.9842 12.4588 48.8359 12.1848C48.6881 11.9101 48.5347 11.6393 48.3744 11.3724C48.2147 11.1056 48.0493 10.842 47.8777 10.5829C47.706 10.3239 47.5294 10.0688 47.3464 9.81757C47.1641 9.56701 46.9761 9.32102 46.7824 9.07895C46.5888 8.83688 46.3901 8.60002 46.1864 8.36774C45.982 8.1348 45.7733 7.90773 45.5589 7.68523C45.1012 7.20696 44.6215 6.75283 44.1197 6.32414C43.6186 5.89481 43.098 5.49222 42.5586 5.11704C42.0185 4.74121 41.4627 4.39408 40.8899 4.07567C40.3172 3.75725 39.7305 3.46885 39.1301 3.21112C38.5303 2.95274 37.9192 2.72567 37.2973 2.53058C36.6755 2.33548 36.0462 2.17236 35.4086 2.04121C34.7711 1.91071 34.1292 1.81284 33.4828 1.74824C32.8359 1.68365 32.1876 1.65233 31.5382 1.65428Z" fill="#7D9B76"/>
<path d="M7.28038 54.47C6.83586 54.4693 6.39638 54.4243 5.96066 54.3342C5.52558 54.2442 5.10244 54.1104 4.69251 53.9343C4.28195 53.7574 3.89276 53.5408 3.52369 53.2844C3.15463 53.028 2.81322 52.7369 2.49886 52.4107C2.32847 52.2332 2.16751 52.0473 2.01599 51.8515C1.86446 51.6564 1.72363 51.4535 1.59285 51.2428C1.4627 51.032 1.34324 50.8147 1.2351 50.5903C1.12696 50.3665 1.03076 50.1368 0.946514 49.9019C0.861635 49.667 0.789959 49.4282 0.729601 49.1855C0.669871 48.9427 0.622716 48.6967 0.588136 48.4488C0.554184 48.2009 0.532178 47.9516 0.523376 47.701C0.514574 47.4505 0.518975 47.1999 0.535951 46.95C0.552926 46.7001 0.582477 46.4515 0.625231 46.2049C0.667356 45.9582 0.722685 45.7149 0.790588 45.4741C0.858491 45.2333 0.93834 44.9971 1.03014 44.7655C1.12256 44.5339 1.2263 44.3081 1.34136 44.0876C1.45642 43.8677 1.58279 43.6543 1.72048 43.4481C1.85755 43.2419 2.0053 43.0442 2.16311 42.8544C2.32093 42.6645 2.48754 42.4844 2.66421 42.3134C2.84026 42.1418 3.02511 41.9813 3.21813 41.8306L14.1122 33.3241C14.2373 33.2262 14.3775 33.1917 14.5322 33.221C14.6862 33.2491 14.8063 33.3319 14.8918 33.469C15.6513 34.6852 16.5253 35.8055 17.5124 36.8306C18.4995 37.8556 19.579 38.7626 20.7504 39.5508C20.7818 39.5717 20.8107 39.5958 20.8371 39.6232C20.8635 39.65 20.8868 39.68 20.9075 39.712C20.9283 39.7439 20.9453 39.7785 20.9591 39.8144C20.9729 39.8497 20.983 39.8868 20.9893 39.9247C20.9956 39.9632 20.9987 40.001 20.9975 40.0395C20.9962 40.0787 20.9912 40.1165 20.983 40.1537C20.9742 40.1916 20.9616 40.2274 20.9459 40.2627C20.9302 40.2973 20.9107 40.3305 20.8887 40.3612L12.6825 51.6643C12.392 52.0662 12.0632 52.4322 11.6972 52.7611C11.3307 53.0899 10.9352 53.3744 10.5102 53.6145C10.0852 53.8553 9.64001 54.0465 9.17538 54.1874C8.71074 54.3284 8.23731 54.4171 7.75381 54.4523C7.59537 54.4634 7.4363 54.47 7.28038 54.47ZM3.26403 51.616C3.40738 51.7647 3.55764 51.9057 3.71546 52.0381C3.87327 52.1706 4.03737 52.2933 4.20776 52.4074C4.37877 52.5216 4.55419 52.6254 4.73589 52.72C4.91697 52.8146 5.10244 52.8988 5.29232 52.9725C5.4822 53.0462 5.67585 53.1095 5.87201 53.1617C6.06818 53.2139 6.26686 53.255 6.46742 53.285C6.66862 53.3151 6.86981 53.334 7.07289 53.3418C7.27535 53.3496 7.4778 53.3464 7.68025 53.3314C7.8827 53.3164 8.08327 53.2903 8.28321 53.2531C8.48251 53.2159 8.67994 53.1682 8.87422 53.1089C9.06912 53.0495 9.26026 52.9797 9.44762 52.8994C9.63498 52.8192 9.81732 52.7285 9.99588 52.628C10.1738 52.5268 10.3461 52.4166 10.5127 52.2965C10.6793 52.1771 10.8396 52.0479 10.993 51.9102C11.1465 51.7726 11.2923 51.6264 11.4306 51.4724C11.569 51.3184 11.6991 51.1573 11.8205 50.9889L19.6771 40.1596C18.6259 39.4073 17.6482 38.5623 16.7453 37.6247C15.8425 36.687 15.0289 35.6724 14.3046 34.5802L3.86384 42.7271C3.70162 42.8537 3.54696 42.9888 3.39857 43.133C3.25082 43.2765 3.10999 43.4279 2.97795 43.5871C2.84529 43.747 2.72143 43.9127 2.60574 44.0863C2.49068 44.2592 2.38443 44.4386 2.2876 44.6233C2.19078 44.8086 2.10338 44.9978 2.02605 45.1929C1.94872 45.3873 1.88207 45.5857 1.82485 45.7879C1.76827 45.9902 1.72174 46.1944 1.6859 46.4019C1.65007 46.6094 1.62492 46.8176 1.61109 47.0277C1.59662 47.2378 1.59348 47.4479 1.6004 47.6586C1.60794 47.8687 1.62617 48.0782 1.6551 48.287C1.68402 48.4951 1.72363 48.7013 1.77393 48.9055C1.82423 49.1091 1.88521 49.3101 1.95563 49.5071C2.02668 49.7042 2.10778 49.8973 2.19832 50.0852C2.28949 50.2738 2.38946 50.4565 2.49886 50.6333C2.60889 50.8108 2.72709 50.9811 2.85409 51.1449C2.98172 51.3093 3.1169 51.4653 3.26025 51.614L3.26403 51.616Z" fill="#7D9B76"/>
<path d="M6.83648 50.2477C6.75035 50.2477 6.66421 50.2431 6.5787 50.2327C6.49256 50.2223 6.40769 50.2072 6.32406 50.187C6.23981 50.1668 6.15745 50.1413 6.07571 50.1113C5.99461 50.0813 5.91539 50.0467 5.83805 50.0069C5.76072 49.9671 5.68527 49.9234 5.61297 49.8745C5.54003 49.8262 5.47087 49.7733 5.4036 49.7166C5.33695 49.6598 5.27345 49.5991 5.21372 49.5352C5.15336 49.4706 5.0974 49.4027 5.04459 49.3316C4.99241 49.2611 4.94337 49.1868 4.89935 49.1098C4.85471 49.0334 4.81447 48.9538 4.77927 48.8723C4.74343 48.7907 4.71262 48.7072 4.68621 48.6217C4.65918 48.5369 4.6378 48.4501 4.62082 48.362C4.60385 48.2746 4.5919 48.1858 4.58499 48.0964C4.57807 48.0071 4.57556 47.9177 4.57807 47.8283C4.58121 47.7382 4.58876 47.6495 4.60133 47.5608C4.61391 47.472 4.63151 47.3846 4.65352 47.2978C4.67615 47.211 4.70319 47.1262 4.73463 47.0427C4.76606 46.9592 4.80253 46.8783 4.8434 46.7993C4.88364 46.7203 4.92828 46.644 4.97795 46.5703C5.02699 46.4965 5.0798 46.4254 5.13639 46.3582C5.1936 46.291 5.25396 46.2271 5.31746 46.167C5.38159 46.1064 5.44887 46.0502 5.51866 45.998C5.58907 45.9458 5.66138 45.8982 5.73683 45.8545C5.81228 45.8108 5.89024 45.7716 5.96946 45.7377C6.04931 45.7031 6.13041 45.6738 6.21341 45.649C6.2964 45.6242 6.38065 45.6046 6.46553 45.5902C6.55104 45.5752 6.63654 45.5661 6.72268 45.5615C6.80882 45.557 6.89495 45.5576 6.98109 45.5635C7.06723 45.5694 7.15273 45.5805 7.23761 45.5961C7.32249 45.6124 7.40611 45.6333 7.48911 45.6594C7.57147 45.6849 7.65258 45.7162 7.7318 45.7514C7.81102 45.7873 7.88772 45.8271 7.96254 45.8721C8.03736 45.9171 8.10967 45.9661 8.17883 46.0196C8.24799 46.0724 8.31401 46.1298 8.37751 46.1912C8.44038 46.2525 8.49948 46.3171 8.55544 46.3856C8.6114 46.4541 8.66295 46.5253 8.71137 46.5996C8.75915 46.674 8.80316 46.7517 8.84214 46.8313C8.88175 46.9109 8.91696 46.9924 8.94714 47.0766C8.97732 47.1601 9.0031 47.2456 9.02447 47.3324C9.04522 47.4198 9.06157 47.5073 9.07289 47.596C9.0842 47.6854 9.09049 47.7741 9.09175 47.8642C9.09364 47.9536 9.08986 48.0429 9.08169 48.1323C9.07289 48.2217 9.05968 48.3098 9.04145 48.3972C9.02322 48.4853 9.00058 48.5715 8.97292 48.6563C8.94463 48.7411 8.91256 48.824 8.87546 48.9049C8.839 48.9858 8.7975 49.0647 8.75223 49.1411C8.70634 49.2168 8.65667 49.2898 8.60322 49.3603C8.54978 49.4308 8.49257 49.4973 8.43158 49.5606C8.22032 49.7812 7.977 49.9515 7.70036 50.0702C7.42372 50.1896 7.13576 50.2484 6.83648 50.2477ZM6.83648 46.6851C6.7208 46.6851 6.60699 46.7027 6.49634 46.7373C6.38568 46.7725 6.28194 46.8234 6.18574 46.8906C6.08892 46.9572 6.00404 47.0375 5.93048 47.1301C5.85692 47.2234 5.79781 47.3252 5.7538 47.4368C5.70916 47.5477 5.6815 47.6632 5.66955 47.7833C5.65824 47.9033 5.66389 48.0221 5.68653 48.1402C5.70853 48.2583 5.74752 48.3705 5.80159 48.4768C5.85629 48.5832 5.92419 48.6785 6.00593 48.7639C6.06125 48.8188 6.12161 48.8683 6.18574 48.9114C6.24987 48.9545 6.31778 48.991 6.38882 49.0204C6.45987 49.0504 6.53343 49.0726 6.60825 49.0876C6.6837 49.1032 6.75978 49.1104 6.83648 49.1104C6.91319 49.1104 6.98864 49.1032 7.06408 49.0876C7.13953 49.0726 7.21246 49.0504 7.28351 49.0204C7.35456 48.991 7.42246 48.9545 7.48722 48.9114C7.55135 48.8683 7.61108 48.8188 7.66641 48.7639C7.74815 48.6785 7.81668 48.5832 7.87075 48.4768C7.92545 48.3705 7.9638 48.2583 7.98644 48.1402C8.00907 48.0221 8.0141 47.9033 8.00278 47.7833C7.99147 47.6638 7.9638 47.5484 7.91916 47.4368C7.87452 47.3259 7.81605 47.2234 7.74249 47.1308C7.66893 47.0375 7.58405 46.9579 7.48785 46.8906C7.39102 46.8234 7.28791 46.7725 7.17663 46.738C7.06597 46.7027 6.9528 46.6851 6.83648 46.6851Z" fill="#7D9B76"/>
<path d="M31.5337 38.7744C31.2734 38.7744 31.0132 38.7678 30.7535 38.7548C30.4932 38.7411 30.2342 38.7215 29.9751 38.6948C29.7161 38.6687 29.4577 38.6354 29.1999 38.5956C28.9427 38.5558 28.6862 38.5101 28.4309 38.4573C28.1757 38.4044 27.9217 38.345 27.6695 38.2791C27.4168 38.2139 27.1659 38.1415 26.917 38.0632C26.668 37.9849 26.4209 37.9 26.1757 37.8087C25.9305 37.718 25.6878 37.6208 25.4476 37.517C25.2068 37.4139 24.9691 37.3043 24.7334 37.1888C24.4982 37.0727 24.2662 36.9513 24.0361 36.8241C23.8066 36.6962 23.5803 36.5631 23.3571 36.4241C23.1339 36.2851 22.9138 36.1409 22.6975 35.9908C22.4812 35.8401 22.2687 35.6848 22.0594 35.5237C21.85 35.3625 21.645 35.1961 21.4438 35.0252C21.2426 34.8536 21.0458 34.6767 20.8528 34.4953C20.6598 34.314 20.4718 34.1273 20.2876 33.9362C20.1034 33.745 19.9242 33.5492 19.7494 33.3489C19.5746 33.1486 19.4042 32.9437 19.2395 32.7349C19.0741 32.5261 18.9138 32.3128 18.7591 32.0961C18.6038 31.8789 18.4542 31.6577 18.3096 31.4332C18.165 31.2081 18.0254 30.9797 17.8921 30.7481C17.7582 30.5158 17.6299 30.2809 17.5073 30.0428C17.3841 29.8039 17.2672 29.5625 17.1559 29.3185C17.0446 29.0738 16.9396 28.8265 16.8396 28.5773C16.7403 28.3274 16.6466 28.0749 16.5586 27.8204C16.4712 27.5659 16.3894 27.3095 16.314 27.0504C16.2385 26.7921 16.1688 26.5317 16.1059 26.2694C16.0424 26.0071 15.9852 25.7435 15.9349 25.4779C15.8839 25.213 15.8393 24.9468 15.8009 24.6793C15.7632 24.4118 15.7312 24.1436 15.7054 23.8748C15.6802 23.6053 15.6607 23.3358 15.6482 23.0664C15.6356 22.7962 15.6293 22.5261 15.6293 22.2553C15.6293 21.9852 15.6356 21.715 15.6482 21.4449C15.6607 21.1748 15.6802 20.9053 15.7054 20.6365C15.7312 20.3677 15.7632 20.0988 15.8009 19.832C15.8393 19.5644 15.8839 19.2982 15.9349 19.0327C15.9852 18.7678 16.0424 18.5041 16.1059 18.2418C16.1688 17.9795 16.2385 17.7192 16.314 17.4602C16.3894 17.2018 16.4712 16.9447 16.5586 16.6902C16.6466 16.4358 16.7403 16.1839 16.8396 15.934C16.9396 15.6841 17.0446 15.4375 17.1559 15.1928C17.2672 14.9481 17.3841 14.7067 17.5073 14.4685C17.6299 14.2303 17.7582 13.9948 17.8921 13.7632C18.0254 13.5309 18.165 13.3032 18.3096 13.0781C18.4542 12.8536 18.6038 12.6324 18.7591 12.4151C18.9138 12.1978 19.0741 11.9851 19.2395 11.7757C19.4042 11.5669 19.5746 11.3627 19.7494 11.1623C19.9242 10.962 20.1034 10.7663 20.2876 10.5751C20.4718 10.3839 20.6598 10.1973 20.8528 10.0159C21.0458 9.83453 21.2426 9.65771 21.4438 9.4861C21.645 9.3145 21.85 9.14811 22.0594 8.9876C22.2687 8.82643 22.4812 8.67049 22.6975 8.52042C22.9138 8.37035 23.1339 8.22549 23.3571 8.08651C23.5803 7.94753 23.8066 7.81442 24.0361 7.68719C24.2662 7.55995 24.4982 7.43794 24.7334 7.32245C24.9691 7.20696 25.2068 7.09734 25.4476 6.99425C25.6878 6.8905 25.9305 6.79328 26.1757 6.70193C26.4209 6.61124 26.668 6.52641 26.917 6.44811C27.1659 6.36916 27.4168 6.29739 27.6695 6.23149C27.9217 6.16624 28.1757 6.10686 28.4309 6.05401C28.6862 6.00116 28.9427 5.95483 29.1999 5.91503C29.4577 5.87588 29.7161 5.8426 29.9751 5.81585C30.2342 5.78975 30.4932 5.76952 30.7535 5.75648C31.0132 5.74343 31.2734 5.73625 31.5337 5.73625C31.794 5.73625 32.0543 5.74343 32.314 5.75648C32.5743 5.76952 32.834 5.78975 33.093 5.81585C33.352 5.8426 33.6098 5.87588 33.8676 5.91503C34.1248 5.95483 34.3813 6.00116 34.6365 6.05401C34.8918 6.10686 35.1458 6.16624 35.3986 6.23149C35.6507 6.29739 35.9016 6.36916 36.1505 6.44811C36.3995 6.52641 36.6466 6.61124 36.8918 6.70193C37.137 6.79328 37.3797 6.8905 37.6205 6.99425C37.8607 7.09734 38.0983 7.20696 38.3341 7.32245C38.5693 7.43794 38.8019 7.55995 39.0314 7.68719C39.2609 7.81442 39.4872 7.94753 39.7104 8.08651C39.9336 8.22549 40.1537 8.37035 40.37 8.52042C40.5862 8.67049 40.7994 8.82643 41.0081 8.9876C41.2175 9.14811 41.4225 9.3145 41.6237 9.4861C41.8249 9.65771 42.0216 9.83453 42.2147 10.0159C42.4077 10.1973 42.5963 10.3839 42.7799 10.5751C42.9641 10.7663 43.1433 10.962 43.3181 11.1623C43.4935 11.3627 43.6633 11.5669 43.828 11.7757C43.9934 11.9851 44.1537 12.1978 44.3083 12.4151C44.4636 12.6324 44.6133 12.8536 44.7579 13.0781C44.9025 13.3032 45.0421 13.5309 45.176 13.7632C45.3093 13.9948 45.4376 14.2303 45.5608 14.4685C45.6834 14.7067 45.8003 14.9481 45.9116 15.1928C46.0229 15.4375 46.1285 15.6841 46.2279 15.934C46.3272 16.1839 46.4209 16.4358 46.5089 16.6902C46.5963 16.9447 46.678 17.2018 46.7535 17.4602C46.8289 17.7192 46.8987 17.9795 46.9616 18.2418C47.0251 18.5041 47.0823 18.7678 47.1326 19.0327C47.1835 19.2982 47.2282 19.5644 47.2665 19.832C47.3043 20.0988 47.3363 20.3677 47.3621 20.6365C47.3873 20.9053 47.4067 21.1748 47.4193 21.4449C47.4319 21.715 47.4388 21.9852 47.4388 22.2553C47.4382 22.5261 47.4313 22.7956 47.4187 23.0657C47.4055 23.3358 47.386 23.6053 47.3602 23.8741C47.3344 24.143 47.3024 24.4111 47.264 24.6786C47.2257 24.9455 47.181 25.2117 47.1301 25.4766C47.0792 25.7422 47.022 26.0058 46.9585 26.2675C46.895 26.5298 46.8252 26.7901 46.7497 27.0485C46.6743 27.3075 46.5925 27.564 46.5045 27.8184C46.4165 28.0729 46.3228 28.3248 46.2235 28.574C46.1235 28.8239 46.0179 29.0706 45.9066 29.3152C45.7953 29.5593 45.6784 29.8007 45.5551 30.0388C45.4325 30.277 45.3043 30.5126 45.1703 30.7442C45.0364 30.9758 44.8975 31.2042 44.7529 31.4286C44.6083 31.6531 44.458 31.8743 44.3033 32.0916C44.148 32.3082 43.9883 32.5216 43.823 32.7304C43.6576 32.9392 43.4879 33.1434 43.3131 33.3437C43.1383 33.544 42.9591 33.7398 42.7749 33.9309C42.5913 34.1221 42.4027 34.3081 42.2096 34.4901C42.0172 34.6715 41.8198 34.8477 41.6193 35.0193C41.4181 35.1909 41.2131 35.3573 41.0037 35.5184C40.795 35.679 40.5825 35.8349 40.3662 35.985C40.1493 36.135 39.9298 36.2799 39.7066 36.4189C39.4834 36.5579 39.2571 36.691 39.0276 36.8189C38.7981 36.9461 38.5661 37.0675 38.331 37.1836C38.0958 37.2991 37.8582 37.4087 37.6174 37.5125C37.3772 37.6155 37.1345 37.7134 36.8899 37.8041C36.6447 37.8955 36.3976 37.9803 36.1486 38.0592C35.8997 38.1375 35.6494 38.21 35.3967 38.2759C35.1446 38.3418 34.8906 38.4011 34.6353 38.454C34.38 38.5068 34.1241 38.5532 33.8663 38.5936C33.6092 38.6334 33.3514 38.6667 33.0924 38.6935C32.8333 38.7202 32.5737 38.7404 32.314 38.7535C32.0543 38.7672 31.794 38.7744 31.5337 38.7744ZM31.5337 6.86049C31.2911 6.86049 31.049 6.86636 30.8063 6.87876C30.5642 6.89115 30.3222 6.90942 30.0807 6.93422C29.8393 6.95901 29.5985 6.98968 29.359 7.02687C29.1188 7.06406 28.8799 7.10713 28.6422 7.15606C28.4039 7.205 28.1675 7.26046 27.9324 7.3218C27.6966 7.38313 27.4633 7.45034 27.2307 7.52341C26.9987 7.59649 26.7686 7.67544 26.5403 7.76027C26.3115 7.84509 26.0858 7.93579 25.8613 8.03236C25.6375 8.12892 25.4155 8.23071 25.1961 8.33837C24.9767 8.44603 24.7604 8.55957 24.5466 8.67832C24.3322 8.79707 24.1216 8.92105 23.9135 9.05089C23.7054 9.18008 23.5004 9.31515 23.2986 9.45478C23.0968 9.59507 22.8987 9.73992 22.7038 9.88999C22.5089 10.0401 22.3178 10.1947 22.1304 10.3546C21.943 10.5144 21.7595 10.6795 21.5796 10.8485C21.3998 11.0175 21.2238 11.1911 21.0528 11.3692C20.8811 11.5473 20.7139 11.73 20.551 11.9166C20.3882 12.1032 20.2297 12.2944 20.0757 12.4889C19.9217 12.6839 19.7727 12.8823 19.628 13.0846C19.4834 13.2868 19.3439 13.493 19.2093 13.7025C19.0741 13.9119 18.9446 14.1246 18.8201 14.3406C18.695 14.5566 18.5755 14.7758 18.4611 14.9983C18.3467 15.2202 18.2379 15.4453 18.1342 15.673C18.0304 15.9007 17.9324 16.131 17.8393 16.364C17.7462 16.5969 17.6595 16.8318 17.5777 17.0693C17.496 17.3062 17.4199 17.5456 17.3495 17.7864C17.2791 18.0278 17.2143 18.2706 17.1552 18.5146C17.0961 18.7593 17.0433 19.0053 16.9955 19.2519C16.9484 19.4992 16.9069 19.7471 16.8717 19.9964C16.8358 20.2456 16.8063 20.4955 16.7824 20.7468C16.7585 20.9973 16.7409 21.2485 16.729 21.5004C16.717 21.7516 16.7107 22.0034 16.7107 22.2553C16.7107 22.5072 16.717 22.759 16.729 23.0109C16.7409 23.2627 16.7585 23.514 16.7824 23.7645C16.8063 24.0151 16.8358 24.265 16.8717 24.5142C16.9069 24.7635 16.9484 25.0121 16.9955 25.2587C17.0433 25.506 17.0961 25.752 17.1552 25.996C17.2143 26.2407 17.2791 26.4834 17.3495 26.7242C17.4199 26.9656 17.496 27.2051 17.5777 27.4419C17.6595 27.6794 17.7462 27.9143 17.8393 28.1473C17.9324 28.3796 18.0304 28.6099 18.1342 28.8376C18.2379 29.0653 18.3467 29.2904 18.4611 29.5129C18.5755 29.7348 18.695 29.954 18.8201 30.17C18.9446 30.3866 19.0741 30.5993 19.2093 30.8088C19.3439 31.0182 19.4834 31.2238 19.628 31.4267C19.7727 31.629 19.9217 31.8273 20.0757 32.0224C20.2297 32.2169 20.3882 32.4074 20.551 32.5946C20.7139 32.7813 20.8811 32.9633 21.0528 33.1414C21.2238 33.3196 21.3998 33.4931 21.5796 33.6628C21.7595 33.8318 21.943 33.9962 22.1304 34.156C22.3178 34.3159 22.5089 34.4712 22.7038 34.6213C22.8987 34.7713 23.0968 34.9162 23.2986 35.0565C23.5004 35.1961 23.7054 35.3312 23.9135 35.4604C24.1216 35.5902 24.3322 35.7142 24.5466 35.8329C24.7604 35.9517 24.9767 36.0652 25.1961 36.1729C25.4155 36.2806 25.6375 36.3823 25.8613 36.4789C26.0858 36.5755 26.3115 36.6662 26.5403 36.751C26.7686 36.8358 26.9987 36.9148 27.2307 36.9879C27.4633 37.0609 27.6966 37.1281 27.9324 37.1895C28.1675 37.2508 28.4039 37.3056 28.6422 37.3552C28.8799 37.4041 29.1188 37.4472 29.359 37.4844C29.5985 37.5209 29.8393 37.5523 30.0807 37.5764C30.3222 37.6012 30.5642 37.6201 30.8063 37.6325C31.049 37.6443 31.2911 37.6508 31.5337 37.6508C31.7764 37.6508 32.0191 37.6443 32.2612 37.6325C32.5033 37.6201 32.7453 37.6012 32.9867 37.5764C33.2282 37.5523 33.469 37.5209 33.7085 37.4844C33.9487 37.4472 34.1876 37.4041 34.4253 37.3552C34.6636 37.3056 34.9 37.2508 35.1351 37.1895C35.3709 37.1281 35.6042 37.0609 35.8368 36.9879C36.0688 36.9148 36.2989 36.8358 36.5271 36.751C36.756 36.6662 36.9823 36.5755 37.2062 36.4789C37.4306 36.3823 37.6519 36.2806 37.8714 36.1729C38.0908 36.0652 38.3071 35.9517 38.5215 35.8329C38.7353 35.7142 38.9459 35.5902 39.154 35.4604C39.3621 35.3312 39.5671 35.1961 39.7689 35.0565C39.9707 34.9162 40.1688 34.7713 40.3637 34.6213C40.5586 34.4712 40.7497 34.3159 40.9371 34.156C41.1251 33.9962 41.3087 33.8318 41.4879 33.6628C41.6677 33.4931 41.8437 33.3196 42.0154 33.1414C42.1864 32.9633 42.3536 32.7813 42.5165 32.5946C42.6799 32.4074 42.8377 32.2169 42.9918 32.0224C43.1458 31.8273 43.2948 31.629 43.4394 31.4267C43.584 31.2238 43.7236 31.0182 43.8582 30.8088C43.9934 30.5993 44.1229 30.3866 44.248 30.17C44.3725 29.954 44.4919 29.7348 44.6064 29.5129C44.7208 29.2904 44.8296 29.0653 44.9333 28.8376C45.0371 28.6099 45.1351 28.3796 45.2282 28.1473C45.3212 27.9143 45.4086 27.6794 45.4904 27.4419C45.5721 27.2051 45.6482 26.9656 45.7186 26.7242C45.789 26.4834 45.8531 26.2407 45.9122 25.996C45.9713 25.752 46.0242 25.506 46.0719 25.2587C46.1191 25.0121 46.1606 24.7635 46.1964 24.5142C46.2316 24.265 46.2612 24.0151 46.2851 23.7645C46.309 23.514 46.3266 23.2627 46.3385 23.0109C46.3505 22.759 46.3568 22.5072 46.3568 22.2553C46.3561 22.0034 46.3498 21.7522 46.3379 21.5004C46.326 21.2492 46.3077 20.998 46.2838 20.7474C46.2593 20.4962 46.2298 20.2469 46.1939 19.9977C46.1581 19.7484 46.1166 19.5005 46.0688 19.2532C46.0216 19.0066 45.9682 18.7606 45.9091 18.5165C45.85 18.2725 45.7852 18.0298 45.7142 17.789C45.6438 17.5476 45.5677 17.3088 45.486 17.0719C45.4042 16.8344 45.3168 16.5995 45.2238 16.3672C45.1307 16.1343 45.032 15.904 44.9283 15.6769C44.8245 15.4492 44.7158 15.2241 44.6013 15.0022C44.4869 14.7804 44.3675 14.5612 44.2423 14.3452C44.1178 14.1292 43.9877 13.9165 43.8531 13.7071C43.7186 13.4976 43.5784 13.2921 43.4344 13.0898C43.2898 12.8875 43.1402 12.6892 42.9868 12.4941C42.8327 12.2996 42.6743 12.1091 42.5114 11.9225C42.3486 11.7359 42.1813 11.5532 42.0097 11.3751C41.8387 11.1969 41.6626 11.0234 41.4834 10.8544C41.3036 10.6854 41.12 10.5209 40.9327 10.3611C40.7453 10.2012 40.5542 10.0466 40.3593 9.89652C40.1644 9.74644 39.9663 9.60094 39.7645 9.46131C39.5633 9.32102 39.3583 9.18661 39.1502 9.05676C38.9421 8.92757 38.7315 8.80295 38.5177 8.68419C38.3039 8.56544 38.087 8.45256 37.8682 8.34425C37.6488 8.23659 37.4275 8.1348 37.2037 8.03823C36.9792 7.94166 36.7535 7.85096 36.5253 7.76614C36.297 7.68066 36.0663 7.60171 35.8343 7.52863C35.6023 7.4549 35.369 7.3877 35.1339 7.32636C34.8987 7.26503 34.6623 7.20957 34.424 7.16063C34.1864 7.11104 33.9475 7.06798 33.7079 7.03079C33.4677 6.99359 33.2276 6.96227 32.9861 6.93748C32.7447 6.91269 32.5033 6.89376 32.2606 6.88137C32.0185 6.86897 31.7764 6.86244 31.5337 6.86179V6.86049Z" fill="#7D9B76"/>
<path d="M31.5337 38.7744C27.0628 38.7744 23.5595 31.5193 23.5595 22.2553C23.5595 12.9919 27.0628 5.73625 31.5337 5.73625C36.0046 5.73625 39.5086 12.9926 39.5086 22.2553C39.5086 31.5187 36.0059 38.7744 31.5337 38.7744ZM31.5337 6.86049C27.7978 6.86049 24.6416 13.91 24.6416 22.2553C24.6416 30.6013 27.7978 37.6508 31.5337 37.6508C35.2697 37.6508 38.4265 30.6013 38.4265 22.2553C38.4265 13.9093 35.2703 6.86179 31.5337 6.86179V6.86049Z" fill="#7D9B76"/>
<path d="M31.5337 38.7744C31.462 38.7744 31.3929 38.76 31.3269 38.732C31.2602 38.7032 31.2017 38.6628 31.1514 38.6099C31.1005 38.5571 31.0615 38.4964 31.0339 38.4279C31.0062 38.3587 30.993 38.287 30.993 38.2126V6.29869C30.993 6.22366 31.0062 6.15254 31.0339 6.08337C31.0615 6.01486 31.1005 5.95353 31.1514 5.90133C31.2017 5.84848 31.2602 5.80802 31.3269 5.77931C31.3929 5.7506 31.462 5.73625 31.5337 5.73625C31.6054 5.73625 31.6746 5.7506 31.7406 5.77931C31.8072 5.80802 31.8657 5.84848 31.916 5.90133C31.967 5.95353 32.0059 6.01486 32.0336 6.08337C32.0613 6.15254 32.0745 6.22366 32.0751 6.29869V38.2126C32.0745 38.287 32.0613 38.3587 32.0336 38.4279C32.0059 38.4964 31.967 38.5571 31.916 38.6099C31.8657 38.6628 31.8072 38.7032 31.7406 38.732C31.6746 38.76 31.6054 38.7744 31.5337 38.7744Z" fill="#7D9B76"/>
<path d="M46.8968 22.8177H16.1694C16.0977 22.8177 16.0286 22.8034 15.9625 22.7753C15.8965 22.7466 15.8374 22.7062 15.7871 22.6533C15.7362 22.6005 15.6972 22.5398 15.6695 22.4713C15.6425 22.4021 15.6287 22.3303 15.6287 22.2559C15.6287 22.1816 15.6425 22.1098 15.6695 22.0413C15.6972 21.9721 15.7362 21.9114 15.7871 21.8586C15.8374 21.8064 15.8965 21.7653 15.9625 21.7372C16.0286 21.7085 16.0977 21.6942 16.1694 21.6942H46.8968C46.9685 21.6942 47.0376 21.7085 47.1037 21.7372C47.1703 21.7653 47.2288 21.8064 47.2797 21.8586C47.33 21.9114 47.369 21.9721 47.3966 22.0413C47.4243 22.1098 47.4381 22.1816 47.4381 22.2559C47.4381 22.3303 47.4243 22.4021 47.3966 22.4713C47.369 22.5398 47.33 22.6005 47.2797 22.6533C47.2288 22.7062 47.1703 22.7466 47.1037 22.7753C47.0376 22.8034 46.9685 22.8177 46.8968 22.8177Z" fill="#7D9B76"/>
<path d="M44.524 14.3002H18.5441C18.4724 14.3002 18.4033 14.2858 18.3366 14.2571C18.2706 14.229 18.2121 14.1879 18.1612 14.1357C18.1109 14.0829 18.0713 14.0222 18.0443 13.953C18.0166 13.8845 18.0028 13.8127 18.0028 13.7384C18.0028 13.6633 18.0166 13.5922 18.0443 13.523C18.0713 13.4545 18.1109 13.3932 18.1612 13.341C18.2121 13.2881 18.2706 13.2477 18.3366 13.219C18.4033 13.1903 18.4724 13.1766 18.5441 13.1766H44.524C44.5963 13.1766 44.6648 13.1903 44.7315 13.219C44.7975 13.2477 44.856 13.2881 44.9069 13.341C44.9572 13.3932 44.9968 13.4545 45.0238 13.523C45.0515 13.5922 45.0653 13.6633 45.0653 13.7384C45.0653 13.8127 45.0515 13.8845 45.0238 13.953C44.9968 14.0222 44.9572 14.0829 44.9069 14.1357C44.856 14.1879 44.7975 14.229 44.7315 14.2571C44.6648 14.2858 44.5963 14.3002 44.524 14.3002Z" fill="#7D9B76"/>
<path d="M44.524 31.3366H18.5441C18.4724 31.3366 18.4033 31.3223 18.3366 31.2936C18.2706 31.2649 18.2121 31.2244 18.1612 31.1716C18.1109 31.1194 18.0713 31.0587 18.0443 30.9895C18.0166 30.921 18.0028 30.8492 18.0028 30.7748C18.0028 30.6998 18.0166 30.6287 18.0443 30.5595C18.0713 30.491 18.1109 30.4297 18.1612 30.3775C18.2121 30.3246 18.2706 30.2842 18.3366 30.2555C18.4033 30.2268 18.4724 30.2124 18.5441 30.2124H44.524C44.5963 30.2124 44.6648 30.2268 44.7315 30.2555C44.7975 30.2842 44.856 30.3246 44.9069 30.3775C44.9572 30.4297 44.9968 30.491 45.0238 30.5595C45.0515 30.6287 45.0653 30.6998 45.0653 30.7748C45.0653 30.8492 45.0515 30.921 45.0238 30.9895C44.9968 31.0587 44.9572 31.1194 44.9069 31.1716C44.856 31.2244 44.7975 31.2649 44.7315 31.2936C44.6648 31.3223 44.5963 31.3366 44.524 31.3366Z" fill="#7D9B76"/>
</svg>
