<svg xmlns="http://www.w3.org/2000/svg" xmlns:xlink="http://www.w3.org/1999/xlink" width="1920" zoomAndPan="magnify" viewBox="0 0 1440 809.999993" height="1080" preserveAspectRatio="xMidYMid meet" version="1.0"><path fill="rgb(96.469116%, 96.469116%, 91.369629%)" d="M 746.089844 503.558594 C 739.878906 503.570312 733.699219 503.132812 727.550781 502.253906 C 721.398438 501.371094 715.34375 500.050781 709.386719 498.296875 C 703.425781 496.539062 697.625 494.363281 691.980469 491.769531 C 686.335938 489.175781 680.90625 486.1875 675.691406 482.808594 C 673.667969 481.496094 671.679688 480.128906 669.734375 478.703125 C 667.785156 477.28125 665.878906 475.804688 664.011719 474.273438 C 662.144531 472.742188 660.324219 471.164062 658.546875 469.53125 C 656.769531 467.898438 655.039062 466.21875 653.351562 464.492188 C 651.667969 462.761719 650.035156 460.988281 648.449219 459.171875 C 646.863281 457.351562 645.328125 455.488281 643.84375 453.585938 C 642.363281 451.679688 640.933594 449.734375 639.5625 447.753906 C 638.1875 445.769531 636.867188 443.746094 635.605469 441.6875 C 634.34375 439.632812 633.140625 437.539062 631.996094 435.414062 C 630.851562 433.292969 629.765625 431.136719 628.742188 428.953125 C 627.714844 426.765625 626.75 424.554688 625.847656 422.316406 C 624.945312 420.078125 624.105469 417.8125 623.328125 415.527344 C 622.554688 413.242188 621.839844 410.9375 621.191406 408.613281 C 620.542969 406.285156 619.960938 403.945312 619.441406 401.585938 C 618.925781 399.230469 618.472656 396.859375 618.085938 394.476562 C 617.699219 392.09375 617.378906 389.703125 617.125 387.300781 C 616.875 384.898438 616.6875 382.492188 616.566406 380.082031 C 616.449219 377.671875 616.394531 375.257812 616.410156 372.84375 C 616.425781 370.429688 616.507812 368.019531 616.65625 365.609375 C 616.804688 363.199219 617.019531 360.796875 617.304688 358.398438 C 617.585938 356 617.933594 353.613281 618.351562 351.234375 C 618.765625 348.855469 619.246094 346.492188 619.792969 344.140625 C 620.339844 341.789062 620.953125 339.457031 621.628906 337.140625 C 622.308594 334.820312 623.046875 332.523438 623.851562 330.25 C 624.65625 327.972656 625.523438 325.722656 626.453125 323.492188 C 627.382812 321.265625 628.375 319.066406 629.425781 316.894531 C 630.480469 314.722656 631.589844 312.582031 632.761719 310.46875 C 633.933594 308.359375 635.164062 306.28125 636.449219 304.242188 C 637.734375 302.199219 639.078125 300.195312 640.476562 298.226562 C 641.875 296.261719 643.328125 294.332031 644.832031 292.449219 C 646.335938 290.5625 647.894531 288.71875 649.503906 286.917969 C 651.109375 285.117188 652.765625 283.367188 654.472656 281.660156 C 657.476562 278.636719 660.617188 275.769531 663.90625 273.058594 C 667.191406 270.347656 670.601562 267.804688 674.136719 265.429688 C 677.675781 263.058594 681.320312 260.867188 685.074219 258.851562 C 688.828125 256.839844 692.671875 255.019531 696.605469 253.386719 C 700.539062 251.753906 704.542969 250.320312 708.621094 249.085938 C 712.695312 247.851562 716.824219 246.820312 721 245.992188 C 725.175781 245.167969 729.386719 244.550781 733.625 244.140625 C 737.863281 243.730469 742.113281 243.53125 746.371094 243.539062 C 749.5625 243.539062 752.746094 243.65625 755.929688 243.890625 C 759.113281 244.128906 762.28125 244.480469 765.4375 244.949219 C 768.597656 245.414062 771.730469 246 774.84375 246.699219 C 777.957031 247.398438 781.042969 248.210938 784.097656 249.140625 C 787.148438 250.066406 790.164062 251.105469 793.144531 252.253906 C 796.121094 253.402344 799.050781 254.660156 801.9375 256.027344 C 804.820312 257.390625 807.652344 258.863281 810.429688 260.4375 C 813.203125 262.011719 815.917969 263.683594 818.574219 265.460938 C 821.226562 267.234375 823.8125 269.101562 826.328125 271.066406 C 828.84375 273.03125 831.28125 275.089844 833.648438 277.234375 C 836.011719 279.378906 838.292969 281.605469 840.496094 283.917969 C 842.695312 286.234375 844.808594 288.625 846.832031 291.09375 C 848.855469 293.5625 850.785156 296.101562 852.625 298.714844 C 854.460938 301.324219 856.199219 304 857.839844 306.738281 C 859.480469 309.476562 861.019531 312.273438 862.453125 315.128906 C 863.890625 317.980469 865.214844 320.882812 866.4375 323.832031 C 867.660156 326.785156 868.769531 329.773438 869.769531 332.808594 C 870.769531 335.839844 871.660156 338.90625 872.433594 342.003906 C 873.210938 345.101562 873.871094 348.222656 874.414062 351.371094 C 874.960938 354.519531 875.390625 357.679688 875.703125 360.859375 C 876.015625 364.039062 876.210938 367.222656 876.289062 370.417969 C 876.367188 373.609375 876.328125 376.800781 876.167969 379.988281 C 876.011719 383.179688 875.738281 386.359375 875.347656 389.53125 C 874.957031 392.699219 874.449219 395.851562 873.828125 398.984375 C 873.203125 402.113281 872.46875 405.21875 871.617188 408.296875 C 870.765625 411.375 869.800781 414.417969 868.726562 417.425781 C 867.648438 420.433594 866.464844 423.394531 865.171875 426.316406 C 863.878906 429.234375 862.480469 432.101562 860.972656 434.917969 C 859.46875 437.734375 857.863281 440.492188 856.15625 443.191406 C 854.449219 445.890625 852.644531 448.519531 850.742188 451.085938 C 848.839844 453.652344 846.847656 456.140625 844.761719 458.558594 C 842.679688 460.976562 840.507812 463.316406 838.25 465.574219 C 835.226562 468.585938 832.066406 471.441406 828.761719 474.144531 C 825.460938 476.84375 822.035156 479.375 818.480469 481.738281 C 814.929688 484.105469 811.273438 486.289062 807.507812 488.292969 C 803.742188 490.296875 799.886719 492.109375 795.945312 493.734375 C 792 495.363281 787.988281 496.789062 783.902344 498.019531 C 779.820312 499.25 775.683594 500.277344 771.5 501.101562 C 767.316406 501.925781 763.101562 502.542969 758.855469 502.953125 C 754.609375 503.363281 750.355469 503.566406 746.089844 503.558594 Z M 746.386719 250.269531 C 743.089844 250.269531 739.796875 250.402344 736.511719 250.667969 C 733.226562 250.933594 729.957031 251.328125 726.703125 251.855469 C 723.449219 252.386719 720.21875 253.042969 717.019531 253.828125 C 713.816406 254.617188 710.652344 255.53125 707.523438 256.570312 C 704.394531 257.613281 701.316406 258.777344 698.28125 260.066406 C 695.246094 261.355469 692.265625 262.761719 689.34375 264.289062 C 686.421875 265.820312 683.566406 267.460938 680.777344 269.21875 C 677.984375 270.976562 675.269531 272.839844 672.628906 274.816406 C 669.988281 276.792969 667.433594 278.871094 664.957031 281.050781 C 662.484375 283.230469 660.101562 285.507812 657.808594 287.878906 C 655.519531 290.25 653.324219 292.710938 651.230469 295.257812 C 649.136719 297.804688 647.148438 300.433594 645.261719 303.140625 C 643.378906 305.847656 641.605469 308.628906 639.945312 311.476562 C 638.285156 314.328125 636.742188 317.238281 635.3125 320.214844 C 633.886719 323.1875 632.578125 326.214844 631.394531 329.292969 C 630.210938 332.371094 629.148438 335.492188 628.214844 338.65625 C 627.28125 341.820312 626.472656 345.015625 625.796875 348.246094 C 625.117188 351.472656 624.570312 354.726562 624.152344 357.996094 C 623.734375 361.269531 623.449219 364.554688 623.292969 367.851562 C 623.136719 371.144531 623.117188 374.441406 623.226562 377.738281 C 623.335938 381.039062 623.578125 384.324219 623.949219 387.605469 C 624.324219 390.882812 624.828125 394.140625 625.460938 397.378906 C 626.097656 400.613281 626.859375 403.820312 627.75 407 C 628.644531 410.175781 629.660156 413.308594 630.804688 416.40625 C 631.945312 419.5 633.210938 422.542969 634.597656 425.535156 C 635.984375 428.53125 637.488281 431.460938 639.113281 434.335938 C 640.734375 437.207031 642.46875 440.007812 644.316406 442.742188 C 646.160156 445.476562 648.113281 448.128906 650.175781 450.707031 C 652.234375 453.28125 654.394531 455.773438 656.652344 458.175781 C 658.910156 460.578125 661.265625 462.886719 663.707031 465.101562 C 666.152344 467.3125 668.679688 469.425781 671.292969 471.4375 C 673.910156 473.449219 676.597656 475.351562 679.363281 477.144531 C 680.945312 478.167969 682.546875 479.152344 684.171875 480.101562 C 685.796875 481.050781 687.441406 481.960938 689.109375 482.835938 C 690.773438 483.710938 692.460938 484.542969 694.164062 485.339844 C 695.867188 486.136719 697.589844 486.894531 699.328125 487.613281 C 701.070312 488.328125 702.824219 489.007812 704.59375 489.644531 C 706.363281 490.28125 708.148438 490.875 709.945312 491.433594 C 711.742188 491.988281 713.550781 492.5 715.375 492.972656 C 717.195312 493.445312 719.023438 493.875 720.867188 494.265625 C 722.707031 494.652344 724.554688 495 726.410156 495.304688 C 728.269531 495.605469 730.128906 495.867188 732 496.085938 C 733.867188 496.304688 735.738281 496.480469 737.617188 496.613281 C 739.492188 496.746094 741.371094 496.835938 743.253906 496.882812 C 745.132812 496.929688 747.011719 496.933594 748.894531 496.890625 C 750.773438 496.851562 752.652344 496.769531 754.53125 496.644531 C 756.40625 496.519531 758.28125 496.351562 760.148438 496.136719 C 762.019531 495.925781 763.882812 495.671875 765.742188 495.375 C 767.597656 495.078125 769.449219 494.738281 771.289062 494.355469 C 773.132812 493.976562 774.964844 493.550781 776.789062 493.085938 C 778.609375 492.621094 780.421875 492.113281 782.222656 491.566406 C 784.019531 491.015625 785.804688 490.425781 787.578125 489.796875 C 789.351562 489.164062 791.109375 488.496094 792.851562 487.785156 C 794.59375 487.074219 796.316406 486.320312 798.023438 485.53125 C 799.730469 484.742188 801.421875 483.914062 803.089844 483.046875 C 804.757812 482.179688 806.410156 481.273438 808.035156 480.332031 C 809.664062 479.386719 811.269531 478.40625 812.855469 477.390625 C 814.4375 476.375 815.996094 475.320312 817.53125 474.234375 C 819.066406 473.144531 820.578125 472.023438 822.0625 470.867188 C 823.542969 469.707031 825 468.519531 826.429688 467.292969 C 827.859375 466.070312 829.261719 464.8125 830.632812 463.527344 C 832.003906 462.238281 833.347656 460.917969 834.65625 459.570312 C 835.96875 458.21875 837.25 456.839844 838.5 455.433594 C 839.746094 454.023438 840.960938 452.589844 842.144531 451.125 C 843.328125 449.660156 844.476562 448.171875 845.589844 446.652344 C 846.707031 445.136719 847.785156 443.59375 848.828125 442.03125 C 849.875 440.464844 850.882812 438.875 851.851562 437.261719 C 852.824219 435.648438 853.757812 434.015625 854.65625 432.359375 C 855.550781 430.707031 856.410156 429.03125 857.230469 427.335938 C 858.050781 425.640625 858.832031 423.929688 859.574219 422.199219 C 860.316406 420.46875 861.015625 418.722656 861.679688 416.960938 C 862.339844 415.199219 862.960938 413.421875 863.542969 411.632812 C 864.121094 409.839844 864.660156 408.039062 865.160156 406.222656 C 865.65625 404.40625 866.113281 402.582031 866.527344 400.746094 C 866.941406 398.90625 867.316406 397.0625 867.644531 395.210938 C 867.976562 393.355469 868.261719 391.496094 868.507812 389.628906 C 868.753906 387.761719 868.957031 385.890625 869.113281 384.015625 C 869.273438 382.140625 869.390625 380.261719 869.464844 378.378906 C 869.539062 376.5 869.566406 374.617188 869.554688 372.734375 C 869.542969 370.851562 869.488281 368.96875 869.390625 367.089844 C 869.289062 365.210938 869.148438 363.332031 868.964844 361.460938 C 868.78125 359.585938 868.550781 357.71875 868.28125 355.855469 C 868.011719 353.992188 867.699219 352.132812 867.34375 350.285156 C 866.988281 348.4375 866.59375 346.597656 866.152344 344.765625 C 865.714844 342.9375 865.234375 341.117188 864.710938 339.308594 C 864.1875 337.5 863.625 335.703125 863.019531 333.921875 C 862.417969 332.136719 861.773438 330.371094 861.085938 328.617188 C 860.402344 326.863281 859.675781 325.125 858.910156 323.40625 C 858.144531 321.6875 857.34375 319.984375 856.5 318.300781 C 855.65625 316.617188 854.777344 314.953125 853.855469 313.3125 C 852.9375 311.667969 851.984375 310.046875 850.988281 308.449219 C 849.996094 306.851562 848.96875 305.273438 847.902344 303.722656 C 846.835938 302.171875 845.738281 300.644531 844.601562 299.140625 C 843.46875 297.640625 842.300781 296.167969 841.097656 294.71875 C 839.894531 293.269531 838.660156 291.851562 837.394531 290.460938 C 836.125 289.066406 834.828125 287.707031 833.496094 286.375 C 830.652344 283.511719 827.671875 280.792969 824.554688 278.226562 C 821.441406 275.65625 818.207031 273.246094 814.855469 271 C 811.5 268.75 808.046875 266.671875 804.488281 264.765625 C 800.929688 262.859375 797.285156 261.132812 793.554688 259.589844 C 789.828125 258.042969 786.03125 256.683594 782.167969 255.515625 C 778.304688 254.347656 774.394531 253.371094 770.433594 252.585938 C 766.472656 251.804688 762.484375 251.21875 758.46875 250.832031 C 754.449219 250.445312 750.421875 250.257812 746.386719 250.269531 Z M 835.875 463.191406 Z M 835.875 463.191406 " fill-opacity="1" fill-rule="nonzero"/><path fill="rgb(96.469116%, 96.469116%, 91.369629%)" d="M 595.675781 566.460938 C 592.914062 566.457031 590.183594 566.1875 587.476562 565.648438 C 584.773438 565.109375 582.144531 564.308594 579.597656 563.253906 C 577.046875 562.195312 574.628906 560.898438 572.335938 559.363281 C 570.042969 557.828125 567.921875 556.085938 565.96875 554.132812 C 564.910156 553.070312 563.910156 551.957031 562.96875 550.785156 C 562.027344 549.617188 561.152344 548.402344 560.339844 547.140625 C 559.53125 545.878906 558.789062 544.578125 558.117188 543.234375 C 557.445312 541.894531 556.847656 540.519531 556.324219 539.113281 C 555.796875 537.707031 555.351562 536.277344 554.976562 534.824219 C 554.605469 533.371094 554.3125 531.898438 554.097656 530.414062 C 553.886719 528.929688 553.75 527.4375 553.695312 525.9375 C 553.640625 524.4375 553.667969 522.9375 553.773438 521.441406 C 553.878906 519.945312 554.0625 518.457031 554.328125 516.980469 C 554.589844 515.503906 554.933594 514.046875 555.355469 512.605469 C 555.777344 511.164062 556.273438 509.75 556.84375 508.363281 C 557.417969 506.976562 558.0625 505.625 558.777344 504.304688 C 559.492188 502.988281 560.277344 501.710938 561.132812 500.476562 C 561.984375 499.242188 562.902344 498.058594 563.882812 496.921875 C 564.863281 495.785156 565.898438 494.707031 566.996094 493.683594 C 568.089844 492.65625 569.238281 491.695312 570.4375 490.792969 L 638.121094 439.867188 C 638.898438 439.28125 639.769531 439.074219 640.730469 439.25 C 641.6875 439.417969 642.433594 439.914062 642.964844 440.734375 C 647.683594 448.015625 653.113281 454.722656 659.246094 460.859375 C 665.378906 466.996094 672.085938 472.425781 679.363281 477.144531 C 679.558594 477.269531 679.738281 477.414062 679.902344 477.578125 C 680.066406 477.738281 680.210938 477.917969 680.339844 478.109375 C 680.46875 478.300781 680.574219 478.507812 680.660156 478.722656 C 680.746094 478.933594 680.808594 479.15625 680.847656 479.382812 C 680.886719 479.613281 680.90625 479.839844 680.898438 480.070312 C 680.890625 480.304688 680.859375 480.53125 680.808594 480.753906 C 680.753906 480.980469 680.675781 481.195312 680.578125 481.40625 C 680.480469 481.613281 680.359375 481.8125 680.222656 481.996094 L 629.238281 549.664062 C 627.433594 552.070312 625.390625 554.261719 623.117188 556.230469 C 620.839844 558.199219 618.382812 559.902344 615.742188 561.339844 C 613.101562 562.78125 610.335938 563.925781 607.449219 564.769531 C 604.5625 565.613281 601.621094 566.144531 598.617188 566.355469 C 597.632812 566.421875 596.644531 566.460938 595.675781 566.460938 Z M 570.722656 549.375 C 571.613281 550.265625 572.546875 551.109375 573.527344 551.902344 C 574.507812 552.695312 575.527344 553.429688 576.585938 554.113281 C 577.648438 554.796875 578.738281 555.417969 579.867188 555.984375 C 580.992188 556.550781 582.144531 557.054688 583.324219 557.496094 C 584.503906 557.9375 585.707031 558.316406 586.925781 558.628906 C 588.144531 558.941406 589.378906 559.1875 590.625 559.367188 C 591.875 559.546875 593.125 559.660156 594.386719 559.707031 C 595.644531 559.753906 596.902344 559.734375 598.160156 559.644531 C 599.417969 559.554688 600.664062 559.398438 601.90625 559.175781 C 603.144531 558.953125 604.371094 558.667969 605.578125 558.3125 C 606.789062 557.957031 607.976562 557.539062 609.140625 557.058594 C 610.304688 556.578125 611.4375 556.035156 612.546875 555.433594 C 613.652344 554.828125 614.722656 554.167969 615.757812 553.449219 C 616.792969 552.734375 617.789062 551.960938 618.742188 551.136719 C 619.695312 550.3125 620.601562 549.4375 621.460938 548.515625 C 622.320312 547.59375 623.128906 546.628906 623.882812 545.621094 L 672.695312 480.789062 C 666.164062 476.285156 660.089844 471.226562 654.480469 465.613281 C 648.871094 460 643.816406 453.925781 639.316406 447.386719 L 574.449219 496.160156 C 573.441406 496.917969 572.480469 497.726562 571.558594 498.589844 C 570.640625 499.449219 569.765625 500.355469 568.945312 501.308594 C 568.121094 502.265625 567.351562 503.257812 566.632812 504.296875 C 565.917969 505.332031 565.257812 506.40625 564.65625 507.511719 C 564.054688 508.621094 563.511719 509.753906 563.03125 510.921875 C 562.550781 512.085938 562.136719 513.273438 561.78125 514.484375 C 561.429688 515.695312 561.140625 516.917969 560.917969 518.160156 C 560.695312 519.402344 560.539062 520.648438 560.453125 521.90625 C 560.363281 523.164062 560.34375 524.421875 560.386719 525.683594 C 560.433594 526.941406 560.546875 528.195312 560.726562 529.445312 C 560.90625 530.691406 561.152344 531.925781 561.464844 533.148438 C 561.777344 534.367188 562.15625 535.570312 562.59375 536.75 C 563.035156 537.929688 563.539062 539.085938 564.101562 540.210938 C 564.667969 541.339844 565.289062 542.433594 565.96875 543.492188 C 566.652344 544.554688 567.386719 545.574219 568.175781 546.554688 C 568.96875 547.539062 569.808594 548.472656 570.699219 549.363281 Z M 570.722656 549.375 " fill-opacity="1" fill-rule="nonzero"/><path fill="rgb(96.469116%, 96.469116%, 91.369629%)" d="M 592.917969 541.183594 C 592.382812 541.183594 591.847656 541.15625 591.316406 541.09375 C 590.78125 541.03125 590.253906 540.941406 589.734375 540.820312 C 589.210938 540.699219 588.699219 540.546875 588.191406 540.367188 C 587.6875 540.1875 587.195312 539.980469 586.714844 539.742188 C 586.234375 539.503906 585.765625 539.242188 585.316406 538.949219 C 584.863281 538.660156 584.433594 538.34375 584.015625 538.003906 C 583.601562 537.664062 583.207031 537.300781 582.835938 536.917969 C 582.460938 536.53125 582.113281 536.125 581.785156 535.699219 C 581.460938 535.277344 581.15625 534.832031 580.882812 534.371094 C 580.605469 533.914062 580.355469 533.4375 580.136719 532.949219 C 579.914062 532.460938 579.722656 531.960938 579.558594 531.449219 C 579.390625 530.941406 579.257812 530.421875 579.152344 529.894531 C 579.046875 529.371094 578.972656 528.839844 578.929688 528.304688 C 578.886719 527.769531 578.871094 527.234375 578.886719 526.699219 C 578.90625 526.160156 578.953125 525.628906 579.03125 525.097656 C 579.109375 524.566406 579.21875 524.042969 579.355469 523.523438 C 579.496094 523.003906 579.664062 522.496094 579.859375 521.996094 C 580.054688 521.496094 580.28125 521.011719 580.535156 520.539062 C 580.785156 520.066406 581.0625 519.609375 581.371094 519.167969 C 581.675781 518.726562 582.003906 518.300781 582.355469 517.898438 C 582.710938 517.496094 583.085938 517.113281 583.480469 516.753906 C 583.878906 516.390625 584.296875 516.054688 584.730469 515.742188 C 585.167969 515.429688 585.617188 515.144531 586.085938 514.882812 C 586.554688 514.621094 587.039062 514.386719 587.53125 514.183594 C 588.027344 513.976562 588.53125 513.800781 589.046875 513.652344 C 589.5625 513.503906 590.085938 513.386719 590.613281 513.300781 C 591.144531 513.210938 591.675781 513.15625 592.210938 513.128906 C 592.746094 513.101562 593.28125 513.105469 593.816406 513.140625 C 594.351562 513.175781 594.882812 513.242188 595.410156 513.335938 C 595.9375 513.433594 596.457031 513.558594 596.972656 513.714844 C 597.484375 513.867188 597.988281 514.054688 598.480469 514.265625 C 598.972656 514.480469 599.449219 514.71875 599.914062 514.988281 C 600.378906 515.257812 600.828125 515.550781 601.257812 515.871094 C 601.6875 516.1875 602.097656 516.53125 602.492188 516.898438 C 602.882812 517.265625 603.25 517.652344 603.597656 518.0625 C 603.945312 518.472656 604.265625 518.898438 604.566406 519.34375 C 604.863281 519.789062 605.136719 520.253906 605.378906 520.730469 C 605.625 521.207031 605.84375 521.695312 606.03125 522.199219 C 606.21875 522.699219 606.378906 523.210938 606.511719 523.730469 C 606.640625 524.253906 606.742188 524.777344 606.8125 525.308594 C 606.882812 525.84375 606.921875 526.375 606.929688 526.914062 C 606.941406 527.449219 606.917969 527.984375 606.867188 528.519531 C 606.8125 529.054688 606.730469 529.582031 606.617188 530.105469 C 606.503906 530.632812 606.363281 531.148438 606.191406 531.65625 C 606.015625 532.164062 605.816406 532.660156 605.585938 533.144531 C 605.359375 533.628906 605.101562 534.101562 604.820312 534.558594 C 604.535156 535.011719 604.226562 535.449219 603.894531 535.871094 C 603.5625 536.292969 603.207031 536.691406 602.828125 537.070312 C 601.515625 538.390625 600.003906 539.410156 598.285156 540.121094 C 596.566406 540.835938 594.777344 541.1875 592.917969 541.183594 Z M 592.917969 519.855469 C 592.199219 519.855469 591.492188 519.960938 590.804688 520.167969 C 590.117188 520.378906 589.472656 520.683594 588.875 521.085938 C 588.273438 521.484375 587.746094 521.964844 587.289062 522.519531 C 586.832031 523.078125 586.464844 523.6875 586.191406 524.355469 C 585.914062 525.019531 585.742188 525.710938 585.667969 526.429688 C 585.597656 527.148438 585.632812 527.859375 585.773438 528.566406 C 585.910156 529.273438 586.152344 529.945312 586.488281 530.582031 C 586.828125 531.21875 587.25 531.789062 587.757812 532.300781 C 588.101562 532.628906 588.476562 532.925781 588.875 533.183594 C 589.273438 533.441406 589.695312 533.660156 590.136719 533.835938 C 590.578125 534.015625 591.035156 534.148438 591.5 534.238281 C 591.96875 534.332031 592.441406 534.375 592.917969 534.375 C 593.394531 534.375 593.863281 534.332031 594.332031 534.238281 C 594.800781 534.148438 595.253906 534.015625 595.695312 533.835938 C 596.136719 533.660156 596.558594 533.441406 596.960938 533.183594 C 597.359375 532.925781 597.730469 532.628906 598.074219 532.300781 C 598.582031 531.789062 599.007812 531.21875 599.34375 530.582031 C 599.683594 529.945312 599.921875 529.273438 600.0625 528.566406 C 600.203125 527.859375 600.234375 527.148438 600.164062 526.429688 C 600.09375 525.714844 599.921875 525.023438 599.644531 524.355469 C 599.367188 523.691406 599.003906 523.078125 598.546875 522.523438 C 598.089844 521.964844 597.5625 521.488281 596.964844 521.085938 C 596.363281 520.683594 595.722656 520.378906 595.03125 520.171875 C 594.34375 519.960938 593.640625 519.855469 592.917969 519.855469 Z M 592.917969 519.855469 " fill-opacity="1" fill-rule="nonzero"/><path fill="rgb(96.469116%, 96.469116%, 91.369629%)" d="M 746.359375 472.496094 C 744.742188 472.496094 743.125 472.457031 741.511719 472.378906 C 739.894531 472.296875 738.285156 472.179688 736.675781 472.019531 C 735.066406 471.863281 733.460938 471.664062 731.859375 471.425781 C 730.261719 471.1875 728.667969 470.914062 727.082031 470.597656 C 725.496094 470.28125 723.917969 469.925781 722.351562 469.53125 C 720.78125 469.140625 719.222656 468.707031 717.675781 468.238281 C 716.128906 467.769531 714.59375 467.261719 713.070312 466.714844 C 711.546875 466.171875 710.039062 465.589844 708.546875 464.96875 C 707.050781 464.351562 705.574219 463.695312 704.109375 463.003906 C 702.648438 462.308594 701.207031 461.582031 699.777344 460.820312 C 698.351562 460.054688 696.945312 459.257812 695.558594 458.425781 C 694.171875 457.59375 692.804688 456.730469 691.460938 455.832031 C 690.117188 454.929688 688.796875 454 687.496094 453.035156 C 686.195312 452.070312 684.921875 451.074219 683.671875 450.050781 C 682.421875 449.023438 681.199219 447.964844 680 446.878906 C 678.800781 445.792969 677.632812 444.675781 676.488281 443.53125 C 675.34375 442.386719 674.230469 441.214844 673.144531 440.015625 C 672.058594 438.816406 671 437.589844 669.976562 436.339844 C 668.949219 435.089844 667.953125 433.8125 666.992188 432.515625 C 666.027344 431.214844 665.097656 429.890625 664.199219 428.546875 C 663.300781 427.199219 662.433594 425.832031 661.605469 424.445312 C 660.773438 423.054688 659.976562 421.648438 659.214844 420.222656 C 658.449219 418.792969 657.722656 417.347656 657.03125 415.886719 C 656.339844 414.421875 655.6875 412.941406 655.066406 411.449219 C 654.449219 409.953125 653.867188 408.441406 653.320312 406.917969 C 652.777344 405.394531 652.269531 403.859375 651.800781 402.308594 C 651.332031 400.761719 650.898438 399.203125 650.507812 397.632812 C 650.113281 396.0625 649.757812 394.484375 649.445312 392.894531 C 649.128906 391.308594 648.851562 389.714844 648.613281 388.113281 C 648.378906 386.511719 648.179688 384.90625 648.019531 383.296875 C 647.863281 381.683594 647.742188 380.070312 647.664062 378.457031 C 647.585938 376.839844 647.546875 375.222656 647.546875 373.601562 C 647.546875 371.984375 647.585938 370.367188 647.664062 368.75 C 647.742188 367.132812 647.863281 365.519531 648.019531 363.910156 C 648.179688 362.300781 648.378906 360.691406 648.613281 359.09375 C 648.851562 357.492188 649.128906 355.898438 649.445312 354.308594 C 649.757812 352.722656 650.113281 351.144531 650.507812 349.574219 C 650.898438 348.003906 651.332031 346.445312 651.800781 344.894531 C 652.269531 343.347656 652.777344 341.808594 653.320312 340.285156 C 653.867188 338.761719 654.449219 337.253906 655.066406 335.757812 C 655.6875 334.261719 656.339844 332.785156 657.03125 331.320312 C 657.722656 329.855469 658.449219 328.410156 659.214844 326.984375 C 659.976562 325.558594 660.773438 324.148438 661.605469 322.761719 C 662.433594 321.371094 663.300781 320.007812 664.199219 318.660156 C 665.097656 317.316406 666.027344 315.992188 666.992188 314.691406 C 667.953125 313.390625 668.949219 312.117188 669.976562 310.863281 C 671 309.613281 672.058594 308.390625 673.144531 307.191406 C 674.230469 305.992188 675.34375 304.820312 676.488281 303.675781 C 677.632812 302.53125 678.800781 301.414062 680 300.328125 C 681.199219 299.242188 682.421875 298.183594 683.671875 297.15625 C 684.921875 296.128906 686.195312 295.132812 687.496094 294.171875 C 688.796875 293.207031 690.117188 292.273438 691.460938 291.375 C 692.804688 290.476562 694.171875 289.609375 695.558594 288.777344 C 696.945312 287.945312 698.351562 287.148438 699.777344 286.386719 C 701.207031 285.625 702.648438 284.894531 704.109375 284.203125 C 705.574219 283.511719 707.050781 282.855469 708.546875 282.238281 C 710.039062 281.617188 711.546875 281.035156 713.070312 280.488281 C 714.59375 279.945312 716.128906 279.4375 717.675781 278.96875 C 719.222656 278.496094 720.78125 278.066406 722.351562 277.671875 C 723.917969 277.28125 725.496094 276.925781 727.082031 276.609375 C 728.667969 276.292969 730.261719 276.015625 731.859375 275.777344 C 733.460938 275.542969 735.066406 275.34375 736.675781 275.183594 C 738.285156 275.027344 739.894531 274.90625 741.511719 274.828125 C 743.125 274.75 744.742188 274.707031 746.359375 274.707031 C 747.976562 274.707031 749.59375 274.75 751.207031 274.828125 C 752.824219 274.90625 754.4375 275.027344 756.046875 275.183594 C 757.65625 275.34375 759.257812 275.542969 760.859375 275.777344 C 762.457031 276.015625 764.050781 276.292969 765.636719 276.609375 C 767.222656 276.925781 768.800781 277.28125 770.371094 277.671875 C 771.9375 278.066406 773.496094 278.496094 775.042969 278.96875 C 776.589844 279.4375 778.125 279.945312 779.648438 280.488281 C 781.171875 281.035156 782.679688 281.617188 784.175781 282.238281 C 785.667969 282.855469 787.144531 283.511719 788.609375 284.203125 C 790.070312 284.894531 791.515625 285.625 792.941406 286.386719 C 794.367188 287.148438 795.773438 287.945312 797.160156 288.777344 C 798.546875 289.609375 799.914062 290.476562 801.257812 291.375 C 802.601562 292.273438 803.925781 293.207031 805.222656 294.171875 C 806.523438 295.132812 807.796875 296.128906 809.046875 297.15625 C 810.296875 298.183594 811.519531 299.242188 812.71875 300.328125 C 813.917969 301.414062 815.089844 302.53125 816.230469 303.675781 C 817.375 304.820312 818.488281 305.992188 819.574219 307.191406 C 820.664062 308.390625 821.71875 309.613281 822.742188 310.863281 C 823.769531 312.117188 824.765625 313.390625 825.726562 314.691406 C 826.691406 315.992188 827.621094 317.316406 828.519531 318.660156 C 829.417969 320.007812 830.285156 321.371094 831.117188 322.761719 C 831.945312 324.148438 832.742188 325.558594 833.507812 326.984375 C 834.269531 328.410156 834.996094 329.855469 835.6875 331.320312 C 836.378906 332.785156 837.035156 334.261719 837.652344 335.757812 C 838.269531 337.253906 838.851562 338.761719 839.398438 340.285156 C 839.941406 341.808594 840.449219 343.347656 840.917969 344.894531 C 841.386719 346.445312 841.820312 348.003906 842.210938 349.574219 C 842.605469 351.144531 842.960938 352.722656 843.273438 354.308594 C 843.589844 355.898438 843.867188 357.492188 844.105469 359.09375 C 844.339844 360.691406 844.539062 362.300781 844.699219 363.910156 C 844.855469 365.519531 844.976562 367.132812 845.054688 368.75 C 845.132812 370.367188 845.175781 371.984375 845.175781 373.601562 C 845.171875 375.222656 845.128906 376.835938 845.050781 378.453125 C 844.96875 380.070312 844.847656 381.683594 844.6875 383.292969 C 844.527344 384.902344 844.328125 386.507812 844.089844 388.109375 C 843.851562 389.707031 843.574219 391.300781 843.257812 392.886719 C 842.941406 394.476562 842.585938 396.054688 842.191406 397.621094 C 841.796875 399.191406 841.363281 400.75 840.894531 402.296875 C 840.425781 403.847656 839.917969 405.382812 839.371094 406.90625 C 838.824219 408.429688 838.242188 409.9375 837.625 411.429688 C 837.003906 412.925781 836.347656 414.402344 835.65625 415.867188 C 834.964844 417.328125 834.238281 418.773438 833.472656 420.199219 C 832.710938 421.625 831.914062 423.035156 831.082031 424.421875 C 830.25 425.808594 829.386719 427.175781 828.488281 428.519531 C 827.589844 429.863281 826.65625 431.1875 825.695312 432.488281 C 824.730469 433.785156 823.738281 435.0625 822.710938 436.3125 C 821.683594 437.5625 820.628906 438.785156 819.542969 439.984375 C 818.457031 441.183594 817.34375 442.355469 816.199219 443.5 C 815.058594 444.644531 813.886719 445.757812 812.6875 446.847656 C 811.492188 447.933594 810.265625 448.988281 809.019531 450.015625 C 807.769531 451.042969 806.496094 452.039062 805.195312 453.003906 C 803.898438 453.964844 802.578125 454.898438 801.234375 455.796875 C 799.886719 456.695312 798.523438 457.5625 797.136719 458.394531 C 795.75 459.226562 794.34375 460.023438 792.917969 460.789062 C 791.492188 461.550781 790.050781 462.277344 788.589844 462.972656 C 787.128906 463.664062 785.652344 464.320312 784.15625 464.941406 C 782.664062 465.558594 781.15625 466.144531 779.636719 466.6875 C 778.113281 467.234375 776.578125 467.742188 775.03125 468.214844 C 773.484375 468.683594 771.929688 469.117188 770.359375 469.511719 C 768.792969 469.90625 767.214844 470.261719 765.628906 470.578125 C 764.042969 470.894531 762.453125 471.171875 760.851562 471.414062 C 759.253906 471.652344 757.652344 471.851562 756.042969 472.011719 C 754.433594 472.171875 752.820312 472.292969 751.207031 472.371094 C 749.59375 472.453125 747.976562 472.496094 746.359375 472.496094 Z M 746.359375 281.4375 C 744.851562 281.4375 743.347656 281.472656 741.839844 281.546875 C 740.335938 281.621094 738.832031 281.730469 737.332031 281.878906 C 735.832031 282.027344 734.335938 282.210938 732.847656 282.433594 C 731.355469 282.65625 729.871094 282.914062 728.394531 283.207031 C 726.914062 283.5 725.445312 283.832031 723.984375 284.199219 C 722.519531 284.566406 721.070312 284.96875 719.625 285.40625 C 718.183594 285.84375 716.753906 286.316406 715.335938 286.824219 C 713.914062 287.332031 712.511719 287.875 711.117188 288.453125 C 709.726562 289.03125 708.347656 289.640625 706.984375 290.285156 C 705.621094 290.929688 704.277344 291.609375 702.949219 292.320312 C 701.617188 293.03125 700.308594 293.773438 699.015625 294.550781 C 697.722656 295.324219 696.449219 296.132812 695.195312 296.96875 C 693.941406 297.808594 692.710938 298.675781 691.5 299.574219 C 690.289062 300.472656 689.101562 301.398438 687.9375 302.355469 C 686.773438 303.3125 685.632812 304.300781 684.515625 305.3125 C 683.398438 306.324219 682.304688 307.363281 681.242188 308.429688 C 680.175781 309.496094 679.136719 310.589844 678.125 311.707031 C 677.113281 312.824219 676.128906 313.96875 675.171875 315.132812 C 674.214844 316.300781 673.289062 317.488281 672.390625 318.699219 C 671.492188 319.910156 670.625 321.144531 669.789062 322.398438 C 668.949219 323.652344 668.144531 324.925781 667.371094 326.21875 C 666.59375 327.511719 665.851562 328.824219 665.140625 330.15625 C 664.429688 331.484375 663.753906 332.832031 663.109375 334.195312 C 662.464844 335.558594 661.855469 336.9375 661.277344 338.332031 C 660.699219 339.726562 660.160156 341.132812 659.652344 342.554688 C 659.144531 343.972656 658.671875 345.40625 658.234375 346.847656 C 657.796875 348.292969 657.394531 349.746094 657.027344 351.207031 C 656.660156 352.671875 656.332031 354.144531 656.035156 355.621094 C 655.742188 357.101562 655.484375 358.585938 655.265625 360.078125 C 655.042969 361.570312 654.859375 363.066406 654.710938 364.570312 C 654.5625 366.070312 654.453125 367.574219 654.378906 369.082031 C 654.304688 370.585938 654.265625 372.09375 654.265625 373.601562 C 654.265625 375.109375 654.304688 376.617188 654.378906 378.125 C 654.453125 379.632812 654.5625 381.136719 654.710938 382.636719 C 654.859375 384.136719 655.042969 385.632812 655.265625 387.125 C 655.484375 388.617188 655.742188 390.105469 656.035156 391.582031 C 656.332031 393.0625 656.660156 394.535156 657.027344 395.996094 C 657.394531 397.460938 657.796875 398.914062 658.234375 400.355469 C 658.671875 401.800781 659.144531 403.234375 659.652344 404.652344 C 660.160156 406.074219 660.699219 407.480469 661.277344 408.875 C 661.855469 410.265625 662.464844 411.644531 663.109375 413.007812 C 663.753906 414.371094 664.429688 415.71875 665.140625 417.050781 C 665.851562 418.378906 666.59375 419.691406 667.371094 420.984375 C 668.144531 422.28125 668.949219 423.554688 669.789062 424.808594 C 670.625 426.0625 671.492188 427.292969 672.390625 428.507812 C 673.289062 429.71875 674.214844 430.90625 675.171875 432.074219 C 676.128906 433.238281 677.113281 434.378906 678.125 435.5 C 679.136719 436.617188 680.175781 437.707031 681.242188 438.773438 C 682.304688 439.839844 683.398438 440.878906 684.515625 441.894531 C 685.632812 442.90625 686.773438 443.890625 687.9375 444.847656 C 689.101562 445.804688 690.289062 446.734375 691.5 447.632812 C 692.710938 448.53125 693.941406 449.398438 695.195312 450.238281 C 696.449219 451.074219 697.722656 451.882812 699.015625 452.65625 C 700.308594 453.433594 701.617188 454.175781 702.949219 454.886719 C 704.277344 455.597656 705.621094 456.277344 706.984375 456.921875 C 708.347656 457.566406 709.726562 458.175781 711.117188 458.753906 C 712.511719 459.332031 713.914062 459.875 715.335938 460.382812 C 716.753906 460.890625 718.183594 461.363281 719.625 461.800781 C 721.070312 462.238281 722.519531 462.640625 723.984375 463.007812 C 725.445312 463.375 726.914062 463.703125 728.394531 464 C 729.871094 464.292969 731.355469 464.550781 732.847656 464.773438 C 734.335938 464.992188 735.832031 465.179688 737.332031 465.324219 C 738.832031 465.472656 740.335938 465.585938 741.839844 465.660156 C 743.347656 465.730469 744.851562 465.769531 746.359375 465.769531 C 747.867188 465.769531 749.375 465.730469 750.878906 465.660156 C 752.382812 465.585938 753.886719 465.472656 755.386719 465.324219 C 756.886719 465.179688 758.382812 464.992188 759.871094 464.773438 C 761.363281 464.550781 762.847656 464.292969 764.324219 464 C 765.804688 463.703125 767.273438 463.375 768.734375 463.007812 C 770.199219 462.640625 771.648438 462.238281 773.09375 461.800781 C 774.535156 461.363281 775.964844 460.890625 777.382812 460.382812 C 778.804688 459.875 780.210938 459.332031 781.601562 458.753906 C 782.996094 458.175781 784.371094 457.566406 785.734375 456.921875 C 787.097656 456.277344 788.441406 455.597656 789.773438 454.886719 C 791.101562 454.175781 792.410156 453.433594 793.703125 452.65625 C 794.996094 451.882812 796.269531 451.074219 797.523438 450.238281 C 798.777344 449.398438 800.007812 448.53125 801.21875 447.632812 C 802.429688 446.734375 803.617188 445.804688 804.78125 444.847656 C 805.949219 443.890625 807.089844 442.90625 808.203125 441.894531 C 809.320312 440.878906 810.414062 439.839844 811.480469 438.773438 C 812.542969 437.707031 813.582031 436.617188 814.59375 435.5 C 815.609375 434.378906 816.589844 433.238281 817.546875 432.074219 C 818.503906 430.90625 819.429688 429.71875 820.328125 428.507812 C 821.226562 427.292969 822.09375 426.0625 822.929688 424.808594 C 823.769531 423.554688 824.574219 422.28125 825.351562 420.984375 C 826.125 419.691406 826.867188 418.378906 827.578125 417.050781 C 828.289062 415.71875 828.964844 414.371094 829.609375 413.007812 C 830.253906 411.644531 830.863281 410.265625 831.441406 408.875 C 832.019531 407.480469 832.5625 406.074219 833.070312 404.652344 C 833.578125 403.234375 834.050781 401.800781 834.488281 400.355469 C 834.925781 398.914062 835.324219 397.460938 835.691406 395.996094 C 836.058594 394.535156 836.386719 393.0625 836.683594 391.582031 C 836.976562 390.105469 837.234375 388.617188 837.457031 387.125 C 837.675781 385.632812 837.859375 384.136719 838.007812 382.636719 C 838.15625 381.136719 838.265625 379.632812 838.339844 378.125 C 838.414062 376.617188 838.453125 375.109375 838.453125 373.601562 C 838.449219 372.09375 838.410156 370.589844 838.335938 369.082031 C 838.261719 367.578125 838.148438 366.074219 838 364.574219 C 837.847656 363.070312 837.664062 361.578125 837.441406 360.085938 C 837.21875 358.59375 836.960938 357.109375 836.664062 355.628906 C 836.371094 354.152344 836.039062 352.679688 835.671875 351.21875 C 835.304688 349.757812 834.902344 348.304688 834.460938 346.863281 C 834.023438 345.417969 833.550781 343.988281 833.042969 342.570312 C 832.535156 341.148438 831.992188 339.742188 831.414062 338.351562 C 830.835938 336.957031 830.222656 335.578125 829.578125 334.21875 C 828.933594 332.855469 828.257812 331.507812 827.546875 330.179688 C 826.835938 328.851562 826.09375 327.539062 825.316406 326.246094 C 824.542969 324.953125 823.734375 323.679688 822.898438 322.425781 C 822.0625 321.171875 821.191406 319.941406 820.296875 318.730469 C 819.398438 317.519531 818.46875 316.332031 817.515625 315.164062 C 816.558594 314 815.574219 312.859375 814.5625 311.742188 C 813.550781 310.625 812.511719 309.53125 811.445312 308.464844 C 810.382812 307.398438 809.289062 306.359375 808.175781 305.347656 C 807.058594 304.335938 805.917969 303.351562 804.753906 302.394531 C 803.589844 301.4375 802.402344 300.511719 801.191406 299.613281 C 799.980469 298.714844 798.75 297.84375 797.496094 297.007812 C 796.246094 296.167969 794.972656 295.363281 793.679688 294.585938 C 792.386719 293.8125 791.078125 293.066406 789.75 292.355469 C 788.421875 291.644531 787.074219 290.96875 785.714844 290.320312 C 784.351562 289.675781 782.976562 289.066406 781.585938 288.488281 C 780.191406 287.910156 778.789062 287.367188 777.371094 286.859375 C 775.953125 286.347656 774.519531 285.875 773.078125 285.4375 C 771.636719 284.996094 770.1875 284.59375 768.726562 284.226562 C 767.265625 283.859375 765.796875 283.527344 764.316406 283.234375 C 762.839844 282.9375 761.355469 282.679688 759.867188 282.457031 C 758.375 282.234375 756.882812 282.046875 755.382812 281.898438 C 753.882812 281.75 752.382812 281.636719 750.875 281.5625 C 749.371094 281.488281 747.867188 281.449219 746.359375 281.445312 Z M 746.359375 281.4375 " fill-opacity="1" fill-rule="nonzero"/><path fill="rgb(96.469116%, 96.469116%, 91.369629%)" d="M 746.359375 472.496094 C 718.582031 472.496094 696.816406 429.0625 696.816406 373.601562 C 696.816406 318.144531 718.582031 274.707031 746.359375 274.707031 C 774.136719 274.707031 795.90625 318.148438 795.90625 373.601562 C 795.90625 429.058594 774.144531 472.496094 746.359375 472.496094 Z M 746.359375 281.4375 C 723.148438 281.4375 703.539062 323.640625 703.539062 373.601562 C 703.539062 423.566406 723.148438 465.769531 746.359375 465.769531 C 769.570312 465.769531 789.183594 423.566406 789.183594 373.601562 C 789.183594 323.636719 769.574219 281.445312 746.359375 281.445312 Z M 746.359375 281.4375 " fill-opacity="1" fill-rule="nonzero"/><path fill="rgb(96.469116%, 96.469116%, 91.369629%)" d="M 746.359375 472.496094 C 745.914062 472.496094 745.484375 472.410156 745.074219 472.242188 C 744.660156 472.070312 744.296875 471.828125 743.984375 471.511719 C 743.667969 471.195312 743.425781 470.832031 743.253906 470.421875 C 743.082031 470.007812 743 469.578125 743 469.132812 L 743 278.074219 C 743 277.625 743.082031 277.199219 743.253906 276.785156 C 743.425781 276.375 743.667969 276.007812 743.984375 275.695312 C 744.296875 275.378906 744.660156 275.136719 745.074219 274.964844 C 745.484375 274.792969 745.914062 274.707031 746.359375 274.707031 C 746.804688 274.707031 747.234375 274.792969 747.644531 274.964844 C 748.058594 275.136719 748.421875 275.378906 748.734375 275.695312 C 749.050781 276.007812 749.292969 276.375 749.464844 276.785156 C 749.636719 277.199219 749.71875 277.625 749.722656 278.074219 L 749.722656 469.132812 C 749.71875 469.578125 749.636719 470.007812 749.464844 470.421875 C 749.292969 470.832031 749.050781 471.195312 748.734375 471.511719 C 748.421875 471.828125 748.058594 472.070312 747.644531 472.242188 C 747.234375 472.410156 746.804688 472.496094 746.359375 472.496094 Z M 746.359375 472.496094 " fill-opacity="1" fill-rule="nonzero"/><path fill="rgb(96.469116%, 96.469116%, 91.369629%)" d="M 841.808594 376.96875 L 650.902344 376.96875 C 650.457031 376.96875 650.027344 376.882812 649.617188 376.714844 C 649.207031 376.542969 648.839844 376.300781 648.527344 375.984375 C 648.210938 375.667969 647.96875 375.304688 647.796875 374.894531 C 647.628906 374.480469 647.542969 374.050781 647.542969 373.605469 C 647.542969 373.160156 647.628906 372.730469 647.796875 372.320312 C 647.96875 371.90625 648.210938 371.542969 648.527344 371.226562 C 648.839844 370.914062 649.207031 370.667969 649.617188 370.5 C 650.027344 370.328125 650.457031 370.242188 650.902344 370.242188 L 841.808594 370.242188 C 842.253906 370.242188 842.683594 370.328125 843.09375 370.5 C 843.507812 370.667969 843.871094 370.914062 844.1875 371.226562 C 844.5 371.542969 844.742188 371.90625 844.914062 372.320312 C 845.085938 372.730469 845.171875 373.160156 845.171875 373.605469 C 845.171875 374.050781 845.085938 374.480469 844.914062 374.894531 C 844.742188 375.304688 844.5 375.667969 844.1875 375.984375 C 843.871094 376.300781 843.507812 376.542969 843.09375 376.714844 C 842.683594 376.882812 842.253906 376.96875 841.808594 376.96875 Z M 841.808594 376.96875 " fill-opacity="1" fill-rule="nonzero"/><path fill="rgb(96.469116%, 96.469116%, 91.369629%)" d="M 827.066406 325.976562 L 665.65625 325.976562 C 665.210938 325.976562 664.78125 325.890625 664.367188 325.71875 C 663.957031 325.550781 663.59375 325.304688 663.277344 324.992188 C 662.964844 324.675781 662.71875 324.3125 662.550781 323.898438 C 662.378906 323.488281 662.292969 323.058594 662.292969 322.613281 C 662.292969 322.164062 662.378906 321.738281 662.550781 321.324219 C 662.71875 320.914062 662.964844 320.546875 663.277344 320.234375 C 663.59375 319.917969 663.957031 319.675781 664.367188 319.503906 C 664.78125 319.332031 665.210938 319.25 665.65625 319.25 L 827.066406 319.25 C 827.515625 319.25 827.941406 319.332031 828.355469 319.503906 C 828.765625 319.675781 829.128906 319.917969 829.445312 320.234375 C 829.757812 320.546875 830.003906 320.914062 830.171875 321.324219 C 830.34375 321.738281 830.429688 322.164062 830.429688 322.613281 C 830.429688 323.058594 830.34375 323.488281 830.171875 323.898438 C 830.003906 324.3125 829.757812 324.675781 829.445312 324.992188 C 829.128906 325.304688 828.765625 325.550781 828.355469 325.71875 C 827.941406 325.890625 827.515625 325.976562 827.066406 325.976562 Z M 827.066406 325.976562 " fill-opacity="1" fill-rule="nonzero"/><path fill="rgb(96.469116%, 96.469116%, 91.369629%)" d="M 827.066406 427.96875 L 665.65625 427.96875 C 665.210938 427.96875 664.78125 427.882812 664.367188 427.710938 C 663.957031 427.539062 663.59375 427.296875 663.277344 426.980469 C 662.964844 426.667969 662.71875 426.304688 662.550781 425.890625 C 662.378906 425.480469 662.292969 425.050781 662.292969 424.605469 C 662.292969 424.15625 662.378906 423.730469 662.550781 423.316406 C 662.71875 422.90625 662.964844 422.539062 663.277344 422.226562 C 663.59375 421.910156 663.957031 421.667969 664.367188 421.496094 C 664.78125 421.324219 665.210938 421.238281 665.65625 421.238281 L 827.066406 421.238281 C 827.515625 421.238281 827.941406 421.324219 828.355469 421.496094 C 828.765625 421.667969 829.128906 421.910156 829.445312 422.226562 C 829.757812 422.539062 830.003906 422.90625 830.171875 423.316406 C 830.34375 423.730469 830.429688 424.15625 830.429688 424.605469 C 830.429688 425.050781 830.34375 425.480469 830.171875 425.890625 C 830.003906 426.304688 829.757812 426.667969 829.445312 426.980469 C 829.128906 427.296875 828.765625 427.539062 828.355469 427.710938 C 827.941406 427.882812 827.515625 427.96875 827.066406 427.96875 Z M 827.066406 427.96875 " fill-opacity="1" fill-rule="nonzero"/></svg>