<svg width="27" height="26" viewBox="0 0 27 26" fill="none" xmlns="http://www.w3.org/2000/svg">
<g clip-path="url(#clip0_74_665)">
<path d="M13.5 11.0176C13.0358 11.0176 12.6562 11.3708 12.6562 11.8061V14.9603C12.6562 15.3957 13.0358 15.7489 13.5 15.7489C13.9642 15.7489 14.3438 15.3957 14.3438 14.9603V11.8061C14.3438 11.3708 13.9642 11.0176 13.5 11.0176Z" fill="#595959"/>
<path d="M13.5 0.766357C6.05632 0.766357 0 6.42647 0 13.3832C0 20.3399 6.05632 26 13.5 26C20.9437 26 27 20.3399 27 13.3832C27 6.42647 20.9437 0.766357 13.5 0.766357ZM6.75 15.7488H8.4375C8.90332 15.7488 9.28125 16.102 9.28125 16.5374C9.28125 16.9727 8.90332 17.3259 8.4375 17.3259H6.75C5.35449 17.3259 4.21875 16.2645 4.21875 14.9603V11.8061C4.21875 10.5019 5.35449 9.44042 6.75 9.44042H8.4375C8.90332 9.44042 9.28125 9.79363 9.28125 10.229C9.28125 10.6643 8.90332 11.0175 8.4375 11.0175H6.75C6.28581 11.0175 5.90625 11.3707 5.90625 11.8061V14.9603C5.90625 15.3956 6.28581 15.7488 6.75 15.7488ZM16.0312 14.9603C16.0312 16.2645 14.8955 17.3259 13.5 17.3259C12.1045 17.3259 10.9688 16.2645 10.9688 14.9603V11.8061C10.9688 10.5019 12.1045 9.44042 13.5 9.44042C14.8955 9.44042 16.0312 10.5019 16.0312 11.8061V14.9603ZM21.9375 15.7488C22.4033 15.7488 22.7812 16.102 22.7812 16.5374C22.7812 16.9727 22.4033 17.3259 21.9375 17.3259H18.5625C18.0967 17.3259 17.7188 16.9727 17.7188 16.5374V14.9603C17.7188 13.6561 18.8545 12.5946 20.25 12.5946C20.7142 12.5946 21.0938 12.2414 21.0938 11.8061C21.0938 11.3707 20.7142 11.0175 20.25 11.0175H18.5625C18.0967 11.0175 17.7188 10.6643 17.7188 10.229C17.7188 9.79363 18.0967 9.44042 18.5625 9.44042H20.25C21.6455 9.44042 22.7812 10.5019 22.7812 11.8061C22.7812 13.1103 21.6455 14.1717 20.25 14.1717C19.7858 14.1717 19.4062 14.5249 19.4062 14.9603V15.7488H21.9375Z" fill="#595959"/>
</g>
<defs>
<clipPath id="clip0_74_665">
<rect width="27" height="25.2336" fill="white" transform="translate(0 0.766357)"/>
</clipPath>
</defs>
</svg>
