<svg width="21" height="26" viewBox="0 0 21 26" fill="none" xmlns="http://www.w3.org/2000/svg">
<g clip-path="url(#clip0_74_659)">
<path d="M0.0203629 17.2352C0.0203629 11.1214 7.9889 7.06205 10.3442 0.959427C10.3612 0.91572 10.4842 0.50293 10.4842 0.50293C10.4842 0.50293 10.6064 0.916024 10.6241 0.959427C13.1148 7.06205 20.9483 11.1214 20.9483 17.2352C20.9483 21.8934 16.2633 25.6692 10.4842 25.6692C4.70501 25.6692 0.0203629 21.8934 0.0203629 17.2352Z" fill="#6DBFFA"/>
<path d="M19.4491 17.3573C19.4491 20.8523 15.9872 23.7458 11.4757 24.2427C15.4041 23.028 18.1925 19.9594 18.1925 16.3657C18.1925 14.716 17.6226 13.2163 16.7408 11.7855C18.2781 13.5135 19.4491 15.2936 19.4491 17.3573Z" fill="#F6F6E9"/>
</g>
<defs>
<clipPath id="clip0_74_659">
<rect width="21" height="25.2336" fill="white" transform="translate(0 0.448608)"/>
</clipPath>
</defs>
</svg>
